<?xml version="1.0" encoding="UTF-8" standalone="no"?>
<!DOCTYPE svg PUBLIC "-//W3C//DTD SVG 1.1//EN" "http://www.w3.org/Graphics/SVG/1.1/DTD/svg11.dtd">
<svg version="1.1" xmlns="http://www.w3.org/2000/svg" xmlns:xlink="http://www.w3.org/1999/xlink" preserveAspectRatio="xMidYMid meet" viewBox="0 0 24 24" width="24" height="24"><defs><path d="M24 0L24 24L0 24L0 0L24 0Z" id="av5zMZxiz"></path><path d="M12.5 17L7.5 12L12.5 7L13.91 8.41L11.33 11L21 11L21 13L11.33 13L13.91 15.59L12.5 17ZM19 3C20.11 3 21 3.9 21 5C21 5.27 21 6.6 21 9L19 9L19 5L5 5L5 19L19 19L19 15L21 15C21 17.4 21 18.73 21 19C21 20.1 20.11 21 19 21C17.6 21 6.4 21 5 21C3.9 21 3 20.1 3 19C3 17.6 3 6.4 3 5C3 3.9 3.9 3 5 3C7.8 3 17.6 3 19 3Z" id="c1kXp8Kfx"></path></defs><g><g><g><use xlink:href="#av5zMZxiz" opacity="1" fill="#000000" fill-opacity="0"></use><g><use xlink:href="#av5zMZxiz" opacity="1" fill-opacity="0" stroke="#000000" stroke-width="1" stroke-opacity="0"></use></g></g><g><use xlink:href="#c1kXp8Kfx" opacity="1" fill="#000000" fill-opacity="1"></use><g><use xlink:href="#c1kXp8Kfx" opacity="1" fill-opacity="0" stroke="#000000" stroke-width="1" stroke-opacity="0"></use></g></g></g></g></svg>