<?xml version="1.0" encoding="UTF-8" standalone="no"?>
<!DOCTYPE svg PUBLIC "-//W3C//DTD SVG 1.1//EN" "http://www.w3.org/Graphics/SVG/1.1/DTD/svg11.dtd">
<svg version="1.1" xmlns="http://www.w3.org/2000/svg" xmlns:xlink="http://www.w3.org/1999/xlink" preserveAspectRatio="xMidYMid meet" viewBox="0 0 640 640" width="640" height="640"><defs><path d="M228.64 319.25L219.92 301.32L223.75 301.32L230.27 315.99L252.28 315.99L262.88 301.32L266.85 301.32L266.85 301.32L254.72 319.25L228.64 319.25Z" id="atCMAzkSe"></path><path d="M228.64 319.25L219.92 301.32L223.75 301.32L230.27 315.99L252.28 315.99L262.88 301.32L266.85 301.32L266.85 301.32L254.72 319.25L228.64 319.25Z" id="e2ecXtPYY4"></path><path d="M453.21 96.32C453.21 123.78 475.47 146.04 502.93 146.04C530.39 146.04 552.65 123.78 552.65 96.32C552.65 68.85 530.39 46.59 502.93 46.59C475.47 46.59 453.21 68.85 453.21 96.32Z" id="c4d1vAYE"></path><path d="M453.21 96.32C453.21 123.78 475.47 146.04 502.93 146.04C530.39 146.04 552.65 123.78 552.65 96.32C552.65 68.85 530.39 46.59 502.93 46.59C475.47 46.59 453.21 68.85 453.21 96.32Z" id="bBTq4wAvx"></path><path d="M492.33 62.08C492.33 65.23 494.89 67.79 498.04 67.79C501.19 67.79 503.74 65.23 503.74 62.08C503.74 58.93 501.19 56.37 498.04 56.37C494.89 56.37 492.33 58.93 492.33 62.08Z" id="aIUnxkaNc"></path><path d="M492.33 62.08C492.33 65.23 494.89 67.79 498.04 67.79C501.19 67.79 503.74 65.23 503.74 62.08C503.74 58.93 501.19 56.37 498.04 56.37C494.89 56.37 492.33 58.93 492.33 62.08Z" id="b2Pnq241wV"></path><path d="M502.11 119.14C502.11 122.29 504.67 124.84 507.82 124.84C510.97 124.84 513.53 122.29 513.53 119.14C513.53 115.99 510.97 113.43 507.82 113.43C504.67 113.43 502.11 115.99 502.11 119.14Z" id="cjUqV2Lku"></path><path d="M502.11 119.14C502.11 122.29 504.67 124.84 507.82 124.84C510.97 124.84 513.53 122.29 513.53 119.14C513.53 115.99 510.97 113.43 507.82 113.43C504.67 113.43 502.11 115.99 502.11 119.14Z" id="b1fMenDNu0"></path><path d="M525.75 87.35C525.75 89.6 527.58 91.42 529.83 91.42C532.08 91.42 533.9 89.6 533.9 87.35C533.9 85.1 532.08 83.27 529.83 83.27C527.58 83.27 525.75 85.1 525.75 87.35Z" id="bNRNcEz2T"></path><path d="M525.75 87.35C525.75 89.6 527.58 91.42 529.83 91.42C532.08 91.42 533.9 89.6 533.9 87.35C533.9 85.1 532.08 83.27 529.83 83.27C527.58 83.27 525.75 85.1 525.75 87.35Z" id="coA80bJot"></path><path d="M470.32 100.39C470.32 107.59 476.16 113.43 483.37 113.43C490.57 113.43 496.41 107.59 496.41 100.39C496.41 93.19 490.57 87.35 483.37 87.35C476.16 87.35 470.32 93.19 470.32 100.39Z" id="lbNvP8Pm0"></path><path d="M470.32 100.39C470.32 107.59 476.16 113.43 483.37 113.43C490.57 113.43 496.41 107.59 496.41 100.39C496.41 93.19 490.57 87.35 483.37 87.35C476.16 87.35 470.32 93.19 470.32 100.39Z" id="a2quKGpX5U"></path><path d="M323.6 172.94C323.6 177.44 327.25 181.09 331.75 181.09C336.26 181.09 339.9 177.44 339.9 172.94C339.9 168.43 336.26 164.79 331.75 164.79C327.25 164.79 323.6 168.43 323.6 172.94Z" id="d1f6iX9zf4"></path><path d="M323.6 172.94C323.6 177.44 327.25 181.09 331.75 181.09C336.26 181.09 339.9 177.44 339.9 172.94C339.9 168.43 336.26 164.79 331.75 164.79C327.25 164.79 323.6 168.43 323.6 172.94Z" id="c5ls7ixD7P"></path><path d="M542.05 194.13C542.05 198.63 545.7 202.28 550.21 202.28C554.71 202.28 558.36 198.63 558.36 194.13C558.36 189.63 554.71 185.98 550.21 185.98C545.7 185.98 542.05 189.63 542.05 194.13Z" id="ffDQyeJt"></path><path d="M542.05 194.13C542.05 198.63 545.7 202.28 550.21 202.28C554.71 202.28 558.36 198.63 558.36 194.13C558.36 189.63 554.71 185.98 550.21 185.98C545.7 185.98 542.05 189.63 542.05 194.13Z" id="arY3ZnYkU"></path><path d="M448.32 209.62C448.32 212.32 450.51 214.51 453.21 214.51C455.91 214.51 458.1 212.32 458.1 209.62C458.1 206.92 455.91 204.73 453.21 204.73C450.51 204.73 448.32 206.92 448.32 209.62Z" id="b1qS5AGLRA"></path><path d="M448.32 209.62C448.32 212.32 450.51 214.51 453.21 214.51C455.91 214.51 458.1 212.32 458.1 209.62C458.1 206.92 455.91 204.73 453.21 204.73C450.51 204.73 448.32 206.92 448.32 209.62Z" id="a1OrHD0Qn"></path><path d="M361.1 494.91C361.1 497.61 363.29 499.8 365.99 499.8C368.69 499.8 370.88 497.61 370.88 494.91C370.88 492.21 368.69 490.02 365.99 490.02C363.29 490.02 361.1 492.21 361.1 494.91Z" id="b9v7dBsaV"></path><path d="M361.1 494.91C361.1 497.61 363.29 499.8 365.99 499.8C368.69 499.8 370.88 497.61 370.88 494.91C370.88 492.21 368.69 490.02 365.99 490.02C363.29 490.02 361.1 492.21 361.1 494.91Z" id="aB3G0cGhL"></path><path d="M437.75 354.72L436.12 356.34L438.54 358.78L436.1 361.2L437.72 362.83L440.16 360.41L442.58 362.85L444.21 361.23L441.79 358.79L444.23 356.36L442.61 354.74L442.61 354.74L440.17 357.16L437.75 354.72Z" id="d2trZ9OOag"></path><path d="M437.75 354.72L436.12 356.34L438.54 358.78L436.1 361.2L437.72 362.83L440.16 360.41L442.58 362.85L444.21 361.23L441.79 358.79L444.23 356.36L442.61 354.74L442.61 354.74L440.17 357.16L437.75 354.72Z" id="b51k7mongr"></path><path d="M114.14 434.6L112.52 436.22L114.94 438.66L112.5 441.08L114.12 442.71L116.56 440.29L118.98 442.73L120.61 441.11L118.18 438.67L120.63 436.25L119.01 434.62L119.01 434.62L116.57 437.04L114.14 434.6Z" id="b7p2CPpX4Y"></path><path d="M114.14 434.6L112.52 436.22L114.94 438.66L112.5 441.08L114.12 442.71L116.56 440.29L118.98 442.73L120.61 441.11L118.18 438.67L120.63 436.25L119.01 434.62L119.01 434.62L116.57 437.04L114.14 434.6Z" id="bRdTU9uGq"></path><path d="M133.71 292.77L132.08 294.39L134.5 296.83L132.06 299.25L133.68 300.88L136.12 298.46L138.54 300.9L140.17 299.28L137.75 296.84L140.19 294.42L138.57 292.79L138.57 292.79L136.13 295.21L133.71 292.77Z" id="a1DxY1fQMx"></path><path d="M133.71 292.77L132.08 294.39L134.5 296.83L132.06 299.25L133.68 300.88L136.12 298.46L138.54 300.9L140.17 299.28L137.75 296.84L140.19 294.42L138.57 292.79L138.57 292.79L136.13 295.21L133.71 292.77Z" id="dCPsc0PYo"></path><path d="M560.01 141.97L558.39 143.59L560.81 146.03L558.37 148.46L559.99 150.08L562.43 147.66L564.85 150.1L566.48 148.48L564.05 146.04L566.5 143.62L564.88 141.99L564.88 141.99L562.44 144.42L560.01 141.97Z" id="b9rCFiYxjr"></path><path d="M560.01 141.97L558.39 143.59L560.81 146.03L558.37 148.46L559.99 150.08L562.43 147.66L564.85 150.1L566.48 148.48L564.05 146.04L566.5 143.62L564.88 141.99L564.88 141.99L562.44 144.42L560.01 141.97Z" id="bbAnypU4O"></path><path d="M367.65 209.63L366.02 211.25L368.44 213.69L366 216.11L367.62 217.74L370.06 215.31L372.48 217.76L374.11 216.14L371.69 213.7L374.13 211.27L372.51 209.65L372.51 209.65L370.07 212.07L367.65 209.63Z" id="c4dDloF4Pb"></path><path d="M367.65 209.63L366.02 211.25L368.44 213.69L366 216.11L367.62 217.74L370.06 215.31L372.48 217.76L374.11 216.14L371.69 213.7L374.13 211.27L372.51 209.65L372.51 209.65L370.07 212.07L367.65 209.63Z" id="i2p7GqRYI"></path><path d="M438.97 272.52C447.36 262.7 452.02 257.24 452.96 256.15C453.73 255.25 452.54 253.83 451.76 254.74C450.11 256.67 441.86 266.34 427 283.73C424.52 286.63 404.71 309.83 402.23 312.73C393.84 322.55 389.18 328.01 388.25 329.1C387.47 330 388.67 331.41 389.44 330.51C392.74 326.64 401 316.98 414.21 301.51C419.16 295.71 436.49 275.42 438.97 272.52Z" id="ccwp8Us5o"></path><linearGradient id="gradientc9wEm2ILc" gradientUnits="userSpaceOnUse" x1="388" y1="292.62" x2="453.21" y2="292.62"><stop style="stop-color: #ffffff;stop-opacity: 1" offset="0%"></stop><stop style="stop-color: #ffffff;stop-opacity: 0.3" offset="100%"></stop></linearGradient><path d="M438.97 272.52C447.36 262.7 452.02 257.24 452.96 256.15C453.73 255.25 452.54 253.83 451.76 254.74C450.11 256.67 441.86 266.34 427 283.73C424.52 286.63 404.71 309.83 402.23 312.73C393.84 322.55 389.18 328.01 388.25 329.1C387.47 330 388.67 331.41 389.44 330.51C392.74 326.64 401 316.98 414.21 301.51C419.16 295.71 436.49 275.42 438.97 272.52Z" id="f8wEH9Xuy"></path><path d="M394.96 376.86C403.35 367.04 408.01 361.58 408.94 360.49C409.71 359.58 408.52 358.17 407.75 359.08C406.09 361.01 397.84 370.67 382.98 388.07C380.5 390.97 360.69 414.16 358.21 417.06C349.82 426.88 345.16 432.34 344.23 433.43C343.46 434.34 344.65 435.75 345.42 434.84C348.73 430.98 356.98 421.31 370.19 405.85C375.14 400.05 392.48 379.76 394.96 376.86Z" id="f1tk4oTuIS"></path><linearGradient id="gradientaT3DWxGXI" gradientUnits="userSpaceOnUse" x1="343.98" y1="396.96" x2="409.19" y2="396.96"><stop style="stop-color: #ffffff;stop-opacity: 1" offset="0%"></stop><stop style="stop-color: #ffffff;stop-opacity: 0.3" offset="100%"></stop></linearGradient><path d="M394.96 376.86C403.35 367.04 408.01 361.58 408.94 360.49C409.71 359.58 408.52 358.17 407.75 359.08C406.09 361.01 397.84 370.67 382.98 388.07C380.5 390.97 360.69 414.16 358.21 417.06C349.82 426.88 345.16 432.34 344.23 433.43C343.46 434.34 344.65 435.75 345.42 434.84C348.73 430.98 356.98 421.31 370.19 405.85C375.14 400.05 392.48 379.76 394.96 376.86Z" id="eiWxlddIf"></path><path d="M266.95 292.7C266.95 299.26 261.63 304.58 255.07 304.58C252.8 304.58 234.64 304.58 232.37 304.58C225.81 304.58 220.49 299.26 220.49 292.7C220.49 291.48 220.49 285.39 220.49 274.42C223.59 274.42 239.07 274.42 266.95 274.42C266.95 285.79 266.95 291.89 266.95 292.7Z" id="c8lthlzmB"></path><path d="M266.95 292.7C266.95 299.26 261.63 304.58 255.07 304.58C252.8 304.58 234.64 304.58 232.37 304.58C225.81 304.58 220.49 299.26 220.49 292.7C220.49 291.48 220.49 285.39 220.49 274.42C223.59 274.42 239.07 274.42 266.95 274.42C266.95 285.79 266.95 291.89 266.95 292.7Z" id="bIB7FOdeU"></path><path d="M242.5 445.59C239.07 488.93 237.17 513.01 236.79 517.82C226.19 526.4 216.3 527.56 207.45 518.14C199 455.74 194.41 397.76 201.74 353.49C200.71 349.3 195.55 328.38 186.25 290.72C207.28 280.94 218.97 275.51 221.3 274.42C228.36 291.88 217.23 300.81 242.4 300.51C267.36 300.21 265.49 290.83 264.51 274.42C267.73 275.66 293.52 285.58 296.75 286.82C302.45 289.01 305.46 295.26 303.62 301.08C301.99 306.24 288.96 347.51 287.33 352.67C293.6 378.71 287.16 451.15 282.44 517.32C271.86 528.04 261.26 528.12 250.65 517.67C250.11 512.86 247.39 488.84 242.5 445.59Z" id="l2gwlZJh9U"></path><path d="M242.5 445.59C239.07 488.93 237.17 513.01 236.79 517.82C226.19 526.4 216.3 527.56 207.45 518.14C199 455.74 194.41 397.76 201.74 353.49C200.71 349.3 195.55 328.38 186.25 290.72C207.28 280.94 218.97 275.51 221.3 274.42C228.36 291.88 217.23 300.81 242.4 300.51C267.36 300.21 265.49 290.83 264.51 274.42C267.73 275.66 293.52 285.58 296.75 286.82C302.45 289.01 305.46 295.26 303.62 301.08C301.99 306.24 288.96 347.51 287.33 352.67C293.6 378.71 287.16 451.15 282.44 517.32C271.86 528.04 261.26 528.12 250.65 517.67C250.11 512.86 247.39 488.84 242.5 445.59Z" id="aC7zxyQry"></path><path d="M204.02 580.93C204.02 580.93 204.02 580.93 204.02 580.93C203.69 580.8 203.45 580.67 203.38 580.64C198.2 577.99 198.04 570.58 202.89 567.36C203.57 566.91 206.99 564.63 213.15 560.53C212.55 557.32 209.57 541.29 204.19 512.43C224.97 512.68 236.52 512.81 238.83 512.84C236 548.71 234.24 571.12 233.53 580.09C227.63 580.26 207.51 582.37 204.02 580.93Z" id="a1cOHDirpM"></path><path d="M204.02 580.93C204.02 580.93 204.02 580.93 204.02 580.93C203.69 580.8 203.45 580.67 203.38 580.64C198.2 577.99 198.04 570.58 202.89 567.36C203.57 566.91 206.99 564.63 213.15 560.53C212.55 557.32 209.57 541.29 204.19 512.43C224.97 512.68 236.52 512.81 238.83 512.84C236 548.71 234.24 571.12 233.53 580.09C227.63 580.26 207.51 582.37 204.02 580.93Z" id="a1VJ4Icsed"></path><path d="M282.6 581.34C282.6 581.34 282.6 581.34 282.6 581.34C282.93 581.2 283.18 581.07 283.24 581.04C288.42 578.4 288.58 570.99 283.74 567.77C283.06 567.31 279.63 565.03 273.47 560.93C274.31 557.72 278.53 541.69 286.11 512.84C264.34 512.84 252.25 512.84 249.83 512.84C251.57 548.92 252.66 571.48 253.09 580.5C258.99 580.67 279.12 582.78 282.6 581.34Z" id="b6rB6B1JW3"></path><path d="M282.6 581.34C282.6 581.34 282.6 581.34 282.6 581.34C282.93 581.2 283.18 581.07 283.24 581.04C288.42 578.4 288.58 570.99 283.74 567.77C283.06 567.31 279.63 565.03 273.47 560.93C274.31 557.72 278.53 541.69 286.11 512.84C264.34 512.84 252.25 512.84 249.83 512.84C251.57 548.92 252.66 571.48 253.09 580.5C258.99 580.67 279.12 582.78 282.6 581.34Z" id="aV85zLtja"></path><path d="M197.12 429.55C198.42 434.75 196.24 440.19 191.71 443.06C191.71 443.06 191.71 443.06 191.71 443.06C185.91 446.74 178.23 445.01 174.55 439.21C173.54 437.61 172.9 435.79 172.7 433.9C172.62 433.21 172.25 429.77 171.58 423.59C169.14 364.79 167.78 332.12 167.51 325.59C167.51 308.92 177.54 293.9 192.94 287.51C193.47 287.29 196.14 286.19 200.93 284.2C200.33 292.51 197.34 334.08 191.96 408.91C195.17 421.75 196.89 428.63 197.12 429.55Z" id="i2Htv8hLL2"></path><path d="M197.12 429.55C198.42 434.75 196.24 440.19 191.71 443.06C191.71 443.06 191.71 443.06 191.71 443.06C185.91 446.74 178.23 445.01 174.55 439.21C173.54 437.61 172.9 435.79 172.7 433.9C172.62 433.21 172.25 429.77 171.58 423.59C169.14 364.79 167.78 332.12 167.51 325.59C167.51 308.92 177.54 293.9 192.94 287.51C193.47 287.29 196.14 286.19 200.93 284.2C200.33 292.51 197.34 334.08 191.96 408.91C195.17 421.75 196.89 428.63 197.12 429.55Z" id="a1LouhZmY6"></path><path d="M318.25 404.45L317.61 419.74C317.54 421.56 317.5 422.57 317.49 422.77C316.82 428.96 316.45 432.39 316.37 433.08C315.63 439.91 309.5 444.84 302.68 444.11C295.85 443.37 290.91 437.24 291.65 430.41C291.71 429.84 291.81 429.28 291.95 428.73C292.3 427.35 294.02 420.48 297.11 408.1C297.1 408 297.07 407.49 297 406.57L296.31 396.98C291.41 328.83 288.68 290.96 288.14 283.39C292.94 285.37 295.6 286.47 296.13 286.69C311.52 293.09 321.55 308.11 321.56 324.78C321.56 324.85 321.55 325.05 321.54 325.36C321.1 335.91 320 362.27 318.25 404.45Z" id="epwwqDSwN"></path><path d="M318.25 404.45L317.61 419.74C317.54 421.56 317.5 422.57 317.49 422.77C316.82 428.96 316.45 432.39 316.37 433.08C315.63 439.91 309.5 444.84 302.68 444.11C295.85 443.37 290.91 437.24 291.65 430.41C291.71 429.84 291.81 429.28 291.95 428.73C292.3 427.35 294.02 420.48 297.11 408.1C297.1 408 297.07 407.49 297 406.57L296.31 396.98C291.41 328.83 288.68 290.96 288.14 283.39C292.94 285.37 295.6 286.47 296.13 286.69C311.52 293.09 321.55 308.11 321.56 324.78C321.56 324.85 321.55 325.05 321.54 325.36C321.1 335.91 320 362.27 318.25 404.45Z" id="d4GjQ59yFh"></path><path d="M198.49 402.96C198.85 403.17 235.48 423.72 289.3 405.91C289.35 406.06 289.76 407.3 289.81 407.46C275.63 412.24 260.77 414.72 245.8 414.79C216.19 414.79 197.93 404.52 197.67 404.37C197.75 404.23 198.4 403.1 198.49 402.96Z" id="bWddmw2su"></path><path d="M198.49 402.96C198.85 403.17 235.48 423.72 289.3 405.91C289.35 406.06 289.76 407.3 289.81 407.46C275.63 412.24 260.77 414.72 245.8 414.79C216.19 414.79 197.93 404.52 197.67 404.37C197.75 404.23 198.4 403.1 198.49 402.96Z" id="axeZ9amhs"></path><path d="M209.94 408.85C210.1 408.85 211.4 408.85 211.57 408.85C211.57 409.51 211.6 474.93 217.97 489.28C217.68 489.41 216.78 489.81 216.48 489.94C209.97 475.28 209.94 411.55 209.94 408.85Z" id="b3lNgCFZ2g"></path><path d="M209.94 408.85C210.1 408.85 211.4 408.85 211.57 408.85C211.57 409.51 211.6 474.93 217.97 489.28C217.68 489.41 216.78 489.81 216.48 489.94C209.97 475.28 209.94 411.55 209.94 408.85Z" id="g2aDU54fKi"></path><path d="M202.14 481.7C202.24 481.67 202.77 481.54 203.72 481.29C203.64 481.31 203.01 481.48 202.93 481.5C203.4 481.37 203.66 481.3 203.72 481.29C203.75 481.41 204.57 484.34 208.57 486.57C212.97 489.01 221.83 490.84 239.04 485.64C239.08 485.79 239.46 487.04 239.51 487.2C231.28 489.69 224.86 490.6 219.87 490.6C214.07 490.6 210.21 489.36 207.7 487.95C203.12 485.36 202.18 481.85 202.14 481.7Z" id="aiuQUW3td"></path><path d="M202.14 481.7C202.24 481.67 202.77 481.54 203.72 481.29C203.64 481.31 203.01 481.48 202.93 481.5C203.4 481.37 203.66 481.3 203.72 481.29C203.75 481.41 204.57 484.34 208.57 486.57C212.97 489.01 221.83 490.84 239.04 485.64C239.08 485.79 239.46 487.04 239.51 487.2C231.28 489.69 224.86 490.6 219.87 490.6C214.07 490.6 210.21 489.36 207.7 487.95C203.12 485.36 202.18 481.85 202.14 481.7Z" id="k3SwTY6Ewy"></path><path d="M205.31 282.2C209.07 358.8 211.15 401.35 211.57 409.87C211.57 409.87 211.57 409.87 211.57 409.87C210.59 409.91 210.05 409.94 209.94 409.95C209.94 409.95 209.94 409.95 209.94 409.95C206.19 333.34 204.1 290.79 203.69 282.28C203.69 282.28 203.69 282.28 203.69 282.28C204.66 282.23 205.21 282.2 205.31 282.2C205.31 282.2 205.31 282.2 205.31 282.2Z" id="burX28kIC"></path><path d="M205.31 282.2C209.07 358.8 211.15 401.35 211.57 409.87C211.57 409.87 211.57 409.87 211.57 409.87C210.59 409.91 210.05 409.94 209.94 409.95C209.94 409.95 209.94 409.95 209.94 409.95C206.19 333.34 204.1 290.79 203.69 282.28C203.69 282.28 203.69 282.28 203.69 282.28C204.66 282.23 205.21 282.2 205.31 282.2C205.31 282.2 205.31 282.2 205.31 282.2Z" id="bXyrfHB3Z"></path><path d="M276.69 408.85C276.85 408.85 278.16 408.85 278.32 408.85C278.32 411.55 278.29 475.28 271.77 489.94C271.47 489.81 270.43 489.35 270.28 489.28C276.66 474.93 276.69 409.51 276.69 408.85Z" id="b2F8L3o3P6"></path><path d="M276.69 408.85C276.85 408.85 278.16 408.85 278.32 408.85C278.32 411.55 278.29 475.28 271.77 489.94C271.47 489.81 270.43 489.35 270.28 489.28C276.66 474.93 276.69 409.51 276.69 408.85Z" id="b1gZhGeci"></path><path d="M249.22 485.64C266.42 490.84 275.28 489.01 279.69 486.57C283.68 484.34 284.51 481.41 284.54 481.29C284.7 481.33 285.96 481.66 286.12 481.7C286.08 481.85 285.14 485.36 280.56 487.95C278.04 489.36 274.19 490.6 268.38 490.6C263.4 490.6 256.98 489.69 248.75 487.2C248.79 487.04 249.17 485.79 249.22 485.64Z" id="b6cPRBShM"></path><path d="M249.22 485.64C266.42 490.84 275.28 489.01 279.69 486.57C283.68 484.34 284.51 481.41 284.54 481.29C284.7 481.33 285.96 481.66 286.12 481.7C286.08 481.85 285.14 485.36 280.56 487.95C278.04 489.36 274.19 490.6 268.38 490.6C263.4 490.6 256.98 489.69 248.75 487.2C248.79 487.04 249.17 485.79 249.22 485.64Z" id="c6F6kUpmL6"></path><path d="M282.94 282.2C283.91 282.24 284.46 282.27 284.57 282.27C284.57 282.27 284.57 282.27 284.57 282.27C280.82 358.88 278.74 401.43 278.33 409.95C278.33 409.95 278.33 409.95 278.33 409.95C277.35 409.9 276.8 409.87 276.7 409.87C276.7 409.87 276.7 409.87 276.7 409.87C280.44 333.26 282.52 290.71 282.94 282.2C282.94 282.2 282.94 282.2 282.94 282.2Z" id="b2wpT2puK"></path><path d="M282.94 282.2C283.91 282.24 284.46 282.27 284.57 282.27C284.57 282.27 284.57 282.27 284.57 282.27C280.82 358.88 278.74 401.43 278.33 409.95C278.33 409.95 278.33 409.95 278.33 409.95C277.35 409.9 276.8 409.87 276.7 409.87C276.7 409.87 276.7 409.87 276.7 409.87C280.44 333.26 282.52 290.71 282.94 282.2C282.94 282.2 282.94 282.2 282.94 282.2Z" id="c48J6l2kEe"></path><path d="M296.3 311.1L296.3 310.28L296.3 310.28L296.51 310.71L296.3 311.1Z" id="fhSJsbiNS"></path><path d="M296.3 311.1L296.3 310.28L296.3 310.28L296.51 310.71L296.3 311.1Z" id="a1DRsiLQyH"></path><path d="M307.71 329.85C301.97 318.37 298.78 311.99 298.14 310.71C304.01 299.94 307.28 293.96 307.93 292.76C317.59 300.58 323.2 312.35 323.19 324.78C323.19 324.85 323.18 325.05 323.17 325.36C321.11 325.96 315.96 327.46 307.71 329.85Z" id="a3nFBuXGC"></path><path d="M307.71 329.85C301.97 318.37 298.78 311.99 298.14 310.71C304.01 299.94 307.28 293.96 307.93 292.76C317.59 300.58 323.2 312.35 323.19 324.78C323.19 324.85 323.18 325.05 323.17 325.36C321.11 325.96 315.96 327.46 307.71 329.85Z" id="b1JXiAAmGB"></path><path d="M181.99 329.85C187.73 318.37 190.92 311.99 191.56 310.71C185.69 299.94 182.42 293.96 181.77 292.76C172.11 300.58 166.5 312.35 166.5 324.78C166.51 324.85 166.52 325.05 166.53 325.36C168.59 325.96 173.74 327.46 181.99 329.85Z" id="d1jURI3Dah"></path><path d="M181.99 329.85C187.73 318.37 190.92 311.99 191.56 310.71C185.69 299.94 182.42 293.96 181.77 292.76C172.11 300.58 166.5 312.35 166.5 324.78C166.51 324.85 166.52 325.05 166.53 325.36C168.59 325.96 173.74 327.46 181.99 329.85Z" id="b7SLOIrU9"></path><path d="M200.52 244.67C200.52 268.53 219.86 287.87 243.72 287.87C267.58 287.87 286.92 268.53 286.92 244.67C286.92 220.81 267.58 201.47 243.72 201.47C219.86 201.47 200.52 220.81 200.52 244.67Z" id="b1MfaXpKv"></path><path d="M200.52 244.67C200.52 268.53 219.86 287.87 243.72 287.87C267.58 287.87 286.92 268.53 286.92 244.67C286.92 220.81 267.58 201.47 243.72 201.47C219.86 201.47 200.52 220.81 200.52 244.67Z" id="ahCTJwJoy"></path><path d="M211.93 250.37C211.93 267.93 226.16 282.16 243.72 282.16C261.28 282.16 275.51 267.93 275.51 250.37C275.51 232.82 261.28 218.58 243.72 218.58C226.16 218.58 211.93 232.82 211.93 250.37Z" id="dugDJ3tnN"></path><path d="M211.93 250.37C211.93 267.93 226.16 282.16 243.72 282.16C261.28 282.16 275.51 267.93 275.51 250.37C275.51 232.82 261.28 218.58 243.72 218.58C226.16 218.58 211.93 232.82 211.93 250.37Z" id="cIolXg6tG"></path><path d="M297.14 408.51L296.6 406.57L295.89 396.98L318.71 404.46L318.71 404.46L318.05 419.74L297.14 408.51Z" id="ar3RvT9E9"></path><path d="M297.14 408.51L296.6 406.57L295.89 396.98L318.71 404.46L318.71 404.46L318.05 419.74L297.14 408.51Z" id="aw4Qh6laT"></path><path d="M192.68 408.51L193.25 406.57L194 396.98L170.01 404.46L170.01 404.46L170.7 419.74L192.68 408.51Z" id="b2AVj6FoZg"></path><path d="M192.68 408.51L193.25 406.57L194 396.98L170.01 404.46L170.01 404.46L170.7 419.74L192.68 408.51Z" id="a1nVo6gD1D"></path><path d="M213.17 289.31L212.4 278.24L214.02 278.13L214.77 288.88L229.15 318.44L254.29 318.44L272.73 291.17L276.66 279.14L278.21 279.64L274.15 291.99L255.16 320.07L255.16 320.07L228.13 320.07L213.17 289.31Z" id="bfl84Sncz"></path><path d="M213.17 289.31L212.4 278.24L214.02 278.13L214.77 288.88L229.15 318.44L254.29 318.44L272.73 291.17L276.66 279.14L278.21 279.64L274.15 291.99L255.16 320.07L255.16 320.07L228.13 320.07L213.17 289.31Z" id="bh3jgozuc"></path><path d="M71.73 363.67C71.73 366.38 73.92 368.57 76.62 368.57C79.32 368.57 81.51 366.38 81.51 363.67C81.51 360.97 79.32 358.78 76.62 358.78C73.92 358.78 71.73 360.97 71.73 363.67Z" id="bemIzvPDG"></path><path d="M71.73 363.67C71.73 366.38 73.92 368.57 76.62 368.57C79.32 368.57 81.51 366.38 81.51 363.67C81.51 360.97 79.32 358.78 76.62 358.78C73.92 358.78 71.73 360.97 71.73 363.67Z" id="d1rptd2TBu"></path><path d="M211.12 249.59C211.12 267.6 225.71 282.2 243.72 282.2C261.73 282.2 276.33 267.6 276.33 249.59C276.33 231.58 261.73 216.99 243.72 216.99C225.71 216.99 211.12 231.58 211.12 249.59Z" id="cwGcuKI66"></path><path d="M211.12 249.59C211.12 267.6 225.71 282.2 243.72 282.2C261.73 282.2 276.33 267.6 276.33 249.59C276.33 231.58 261.73 216.99 243.72 216.99C225.71 216.99 211.12 231.58 211.12 249.59Z" id="a3wWJiRs3y"></path><path d="M267.82 249.59C267.82 266.16 255.47 279.84 239.47 281.92C240.86 282.1 242.28 282.2 243.72 282.2C261.73 282.2 276.33 267.6 276.33 249.59C276.33 231.58 261.73 216.99 243.72 216.99C242.28 216.99 240.86 217.08 239.47 217.26C255.47 219.35 267.82 233.03 267.82 249.59Z" id="e2uONGDuix"></path><path d="M267.82 249.59C267.82 266.16 255.47 279.84 239.47 281.92C240.86 282.1 242.28 282.2 243.72 282.2C261.73 282.2 276.33 267.6 276.33 249.59C276.33 231.58 261.73 216.99 243.72 216.99C242.28 216.99 240.86 217.08 239.47 217.26C255.47 219.35 267.82 233.03 267.82 249.59Z" id="d18aLIxBaZ"></path><path d="M252.23 224C254.61 224 256.55 225.94 256.55 228.33C256.55 230.71 254.61 232.65 252.23 232.65C249.84 232.65 247.9 230.71 247.9 228.33C247.9 225.94 249.84 224 252.23 224Z" id="b5ZRDeYqun"></path><path d="M252.23 224C254.61 224 256.55 225.94 256.55 228.33C256.55 230.71 254.61 232.65 252.23 232.65C249.84 232.65 247.9 230.71 247.9 228.33C247.9 225.94 249.84 224 252.23 224Z" id="bnmF4praV"></path><path d="M243.72 238.18C255.95 238.18 265.91 246.48 265.91 256.68C265.91 266.88 255.95 275.18 243.72 275.18C231.49 275.18 221.54 266.88 221.54 256.68C221.54 246.48 231.49 238.18 243.72 238.18Z" id="a1obtS3s8X"></path><path d="M243.72 238.18C255.95 238.18 265.91 246.48 265.91 256.68C265.91 266.88 255.95 275.18 243.72 275.18C231.49 275.18 221.54 266.88 221.54 256.68C221.54 246.48 231.49 238.18 243.72 238.18Z" id="bj2fMbY7h"></path><path d="M257.7 242.45C258.27 241.91 258.59 241.6 258.66 241.54C259.98 240.29 261.73 239.6 263.57 239.6C267.51 239.6 270.73 242.81 270.73 246.76C270.73 249.44 269.17 251.95 266.77 253.16C266.69 253.2 266.28 253.4 265.55 253.77C265.51 253.64 265.21 252.58 265.17 252.45C263.02 247.99 260.88 244.92 258.74 243.26C258.67 243.21 258.32 242.94 257.7 242.45Z" id="h6QOoPWPN"></path><path d="M257.7 242.45C258.27 241.91 258.59 241.6 258.66 241.54C259.98 240.29 261.73 239.6 263.57 239.6C267.51 239.6 270.73 242.81 270.73 246.76C270.73 249.44 269.17 251.95 266.77 253.16C266.69 253.2 266.28 253.4 265.55 253.77C265.51 253.64 265.21 252.58 265.17 252.45C263.02 247.99 260.88 244.92 258.74 243.26C258.67 243.21 258.32 242.94 257.7 242.45Z" id="e3xzlMJcx"></path><path d="M223.87 239.6C225.72 239.6 227.46 240.29 228.78 241.54C228.85 241.6 229.17 241.91 229.74 242.45C229.12 242.94 228.77 243.21 228.7 243.26C225.49 245.75 223.27 248.93 222.27 252.45C222.24 252.54 222.12 252.98 221.89 253.77C221.77 253.71 220.79 253.22 220.67 253.16C218.03 250.68 216.72 248.54 216.72 246.76C216.72 242.81 219.93 239.6 223.87 239.6Z" id="cnOwlKpMD"></path><path d="M223.87 239.6C225.72 239.6 227.46 240.29 228.78 241.54C228.85 241.6 229.17 241.91 229.74 242.45C229.12 242.94 228.77 243.21 228.7 243.26C225.49 245.75 223.27 248.93 222.27 252.45C222.24 252.54 222.12 252.98 221.89 253.77C221.77 253.71 220.79 253.22 220.67 253.16C218.03 250.68 216.72 248.54 216.72 246.76C216.72 242.81 219.93 239.6 223.87 239.6Z" id="gSVdm3bvz"></path><path d="M233.8 248.1C236.18 248.1 238.12 250.04 238.12 252.43C238.12 254.81 236.18 256.75 233.8 256.75C231.41 256.75 229.47 254.81 229.47 252.43C229.47 250.04 231.41 248.1 233.8 248.1Z" id="b12RGgX0Cy"></path><path d="M233.8 248.1C236.18 248.1 238.12 250.04 238.12 252.43C238.12 254.81 236.18 256.75 233.8 256.75C231.41 256.75 229.47 254.81 229.47 252.43C229.47 250.04 231.41 248.1 233.8 248.1Z" id="dMRIDILrA"></path><path d="M253.64 248.1C256.03 248.1 257.97 250.04 257.97 252.43C257.97 254.81 256.03 256.75 253.64 256.75C251.26 256.75 249.32 254.81 249.32 252.43C249.32 250.04 251.26 248.1 253.64 248.1Z" id="b1mJYCMlef"></path><path d="M253.64 248.1C256.03 248.1 257.97 250.04 257.97 252.43C257.97 254.81 256.03 256.75 253.64 256.75C251.26 256.75 249.32 254.81 249.32 252.43C249.32 250.04 251.26 248.1 253.64 248.1Z" id="b5oMJt4O7R"></path><path d="M232.67 264.21C232.22 263.83 231.55 263.9 231.17 264.35C230.79 264.8 230.85 265.47 231.31 265.84C234.58 268.57 238.99 270.08 243.72 270.08C248.45 270.08 252.86 268.57 256.14 265.84C256.59 265.47 256.65 264.8 256.27 264.35C255.9 263.9 255.23 263.83 254.78 264.21C251.88 266.62 247.96 267.95 243.72 267.95C239.49 267.95 235.56 266.62 232.67 264.21Z" id="dWWMENZaf"></path><path d="M232.67 264.21C232.22 263.83 231.55 263.9 231.17 264.35C230.79 264.8 230.85 265.47 231.31 265.84C234.58 268.57 238.99 270.08 243.72 270.08C248.45 270.08 252.86 268.57 256.14 265.84C256.59 265.47 256.65 264.8 256.27 264.35C255.9 263.9 255.23 263.83 254.78 264.21C251.88 266.62 247.96 267.95 243.72 267.95C239.49 267.95 235.56 266.62 232.67 264.21Z" id="d8epDXOzC"></path><path d="M247.1 229.74C247.72 231.99 249.78 233.64 252.23 233.64C255.16 233.64 257.54 231.26 257.54 228.33C257.54 225.4 255.16 223.01 252.23 223.01C249.56 223.01 247.35 224.98 246.97 227.54C246.61 227.66 243.74 228.62 243.38 228.74C242.95 228.88 242.66 229.29 242.66 229.74C242.66 230.41 242.66 233.71 242.66 239.67C242.8 239.67 243.51 239.67 244.78 239.67L244.78 230.51C246.23 230.03 247 229.77 247.1 229.74ZM252.23 231.52C250.47 231.52 249.04 230.09 249.04 228.33C249.04 226.57 250.47 225.14 252.23 225.14C253.99 225.14 255.42 226.57 255.42 228.33C255.42 230.09 253.99 231.52 252.23 231.52Z" id="bTnogHLvv"></path><path d="M247.1 229.74C247.72 231.99 249.78 233.64 252.23 233.64C255.16 233.64 257.54 231.26 257.54 228.33C257.54 225.4 255.16 223.01 252.23 223.01C249.56 223.01 247.35 224.98 246.97 227.54C246.61 227.66 243.74 228.62 243.38 228.74C242.95 228.88 242.66 229.29 242.66 229.74C242.66 230.41 242.66 233.71 242.66 239.67C242.8 239.67 243.51 239.67 244.78 239.67L244.78 230.51C246.23 230.03 247 229.77 247.1 229.74ZM252.23 231.52C250.47 231.52 249.04 230.09 249.04 228.33C249.04 226.57 250.47 225.14 252.23 225.14C253.99 225.14 255.42 226.57 255.42 228.33C255.42 230.09 253.99 231.52 252.23 231.52Z" id="e2A1QNiXjZ"></path></defs><g><g><g><use xlink:href="#atCMAzkSe" opacity="1" fill="#6c63ff" fill-opacity="1"></use><g><use xlink:href="#atCMAzkSe" opacity="1" fill-opacity="0" stroke="#000000" stroke-width="1" stroke-opacity="0"></use></g></g><g><use xlink:href="#e2ecXtPYY4" opacity="1" fill="#000000" fill-opacity="0"></use><g><use xlink:href="#e2ecXtPYY4" opacity="1" fill-opacity="0" stroke="#000000" stroke-width="1" stroke-opacity="0"></use></g></g><g><use xlink:href="#c4d1vAYE" opacity="1" fill="#e6e6e6" fill-opacity="1"></use><g><use xlink:href="#c4d1vAYE" opacity="1" fill-opacity="0" stroke="#000000" stroke-width="1" stroke-opacity="0"></use></g></g><g><use xlink:href="#bBTq4wAvx" opacity="1" fill="#000000" fill-opacity="0"></use><g><use xlink:href="#bBTq4wAvx" opacity="1" fill-opacity="0" stroke="#000000" stroke-width="1" stroke-opacity="0"></use></g></g><g><use xlink:href="#aIUnxkaNc" opacity="1" fill="#cbcbcb" fill-opacity="1"></use><g><use xlink:href="#aIUnxkaNc" opacity="1" fill-opacity="0" stroke="#000000" stroke-width="1" stroke-opacity="0"></use></g></g><g><use xlink:href="#b2Pnq241wV" opacity="1" fill="#000000" fill-opacity="0"></use><g><use xlink:href="#b2Pnq241wV" opacity="1" fill-opacity="0" stroke="#000000" stroke-width="1" stroke-opacity="0"></use></g></g><g><use xlink:href="#cjUqV2Lku" opacity="1" fill="#cbcbcb" fill-opacity="1"></use><g><use xlink:href="#cjUqV2Lku" opacity="1" fill-opacity="0" stroke="#000000" stroke-width="1" stroke-opacity="0"></use></g></g><g><use xlink:href="#b1fMenDNu0" opacity="1" fill="#000000" fill-opacity="0"></use><g><use xlink:href="#b1fMenDNu0" opacity="1" fill-opacity="0" stroke="#000000" stroke-width="1" stroke-opacity="0"></use></g></g><g><use xlink:href="#bNRNcEz2T" opacity="1" fill="#cbcbcb" fill-opacity="1"></use><g><use xlink:href="#bNRNcEz2T" opacity="1" fill-opacity="0" stroke="#000000" stroke-width="1" stroke-opacity="0"></use></g></g><g><use xlink:href="#coA80bJot" opacity="1" fill="#000000" fill-opacity="0"></use><g><use xlink:href="#coA80bJot" opacity="1" fill-opacity="0" stroke="#000000" stroke-width="1" stroke-opacity="0"></use></g></g><g><use xlink:href="#lbNvP8Pm0" opacity="1" fill="#cbcbcb" fill-opacity="1"></use><g><use xlink:href="#lbNvP8Pm0" opacity="1" fill-opacity="0" stroke="#000000" stroke-width="1" stroke-opacity="0"></use></g></g><g><use xlink:href="#a2quKGpX5U" opacity="1" fill="#000000" fill-opacity="0"></use><g><use xlink:href="#a2quKGpX5U" opacity="1" fill-opacity="0" stroke="#000000" stroke-width="1" stroke-opacity="0"></use></g></g><g><use xlink:href="#d1f6iX9zf4" opacity="1" fill="#6c63ff" fill-opacity="1"></use><g><use xlink:href="#d1f6iX9zf4" opacity="1" fill-opacity="0" stroke="#000000" stroke-width="1" stroke-opacity="0"></use></g></g><g><use xlink:href="#c5ls7ixD7P" opacity="1" fill="#000000" fill-opacity="0"></use><g><use xlink:href="#c5ls7ixD7P" opacity="1" fill-opacity="0" stroke="#000000" stroke-width="1" stroke-opacity="0"></use></g></g><g><use xlink:href="#ffDQyeJt" opacity="1" fill="#6c63ff" fill-opacity="1"></use><g><use xlink:href="#ffDQyeJt" opacity="1" fill-opacity="0" stroke="#000000" stroke-width="1" stroke-opacity="0"></use></g></g><g><use xlink:href="#arY3ZnYkU" opacity="1" fill="#000000" fill-opacity="0"></use><g><use xlink:href="#arY3ZnYkU" opacity="1" fill-opacity="0" stroke="#000000" stroke-width="1" stroke-opacity="0"></use></g></g><g><use xlink:href="#b1qS5AGLRA" opacity="1" fill="#e6e6e6" fill-opacity="1"></use><g><use xlink:href="#b1qS5AGLRA" opacity="1" fill-opacity="0" stroke="#000000" stroke-width="1" stroke-opacity="0"></use></g></g><g><use xlink:href="#a1OrHD0Qn" opacity="1" fill="#000000" fill-opacity="0"></use><g><use xlink:href="#a1OrHD0Qn" opacity="1" fill-opacity="0" stroke="#000000" stroke-width="1" stroke-opacity="0"></use></g></g><g><use xlink:href="#b9v7dBsaV" opacity="1" fill="#e6e6e6" fill-opacity="1"></use><g><use xlink:href="#b9v7dBsaV" opacity="1" fill-opacity="0" stroke="#000000" stroke-width="1" stroke-opacity="0"></use></g></g><g><use xlink:href="#aB3G0cGhL" opacity="1" fill="#000000" fill-opacity="0"></use><g><use xlink:href="#aB3G0cGhL" opacity="1" fill-opacity="0" stroke="#000000" stroke-width="1" stroke-opacity="0"></use></g></g><g><use xlink:href="#d2trZ9OOag" opacity="1" fill="#6c63ff" fill-opacity="1"></use><g><use xlink:href="#d2trZ9OOag" opacity="1" fill-opacity="0" stroke="#000000" stroke-width="1" stroke-opacity="0"></use></g></g><g><use xlink:href="#b51k7mongr" opacity="1" fill="#000000" fill-opacity="0"></use><g><use xlink:href="#b51k7mongr" opacity="1" fill-opacity="0" stroke="#000000" stroke-width="1" stroke-opacity="0"></use></g></g><g><use xlink:href="#b7p2CPpX4Y" opacity="1" fill="#e6e6e6" fill-opacity="1"></use><g><use xlink:href="#b7p2CPpX4Y" opacity="1" fill-opacity="0" stroke="#000000" stroke-width="1" stroke-opacity="0"></use></g></g><g><use xlink:href="#bRdTU9uGq" opacity="1" fill="#000000" fill-opacity="0"></use><g><use xlink:href="#bRdTU9uGq" opacity="1" fill-opacity="0" stroke="#000000" stroke-width="1" stroke-opacity="0"></use></g></g><g><use xlink:href="#a1DxY1fQMx" opacity="1" fill="#e6e6e6" fill-opacity="1"></use><g><use xlink:href="#a1DxY1fQMx" opacity="1" fill-opacity="0" stroke="#000000" stroke-width="1" stroke-opacity="0"></use></g></g><g><use xlink:href="#dCPsc0PYo" opacity="1" fill="#000000" fill-opacity="0"></use><g><use xlink:href="#dCPsc0PYo" opacity="1" fill-opacity="0" stroke="#000000" stroke-width="1" stroke-opacity="0"></use></g></g><g><use xlink:href="#b9rCFiYxjr" opacity="1" fill="#e6e6e6" fill-opacity="1"></use><g><use xlink:href="#b9rCFiYxjr" opacity="1" fill-opacity="0" stroke="#000000" stroke-width="1" stroke-opacity="0"></use></g></g><g><use xlink:href="#bbAnypU4O" opacity="1" fill="#000000" fill-opacity="0"></use><g><use xlink:href="#bbAnypU4O" opacity="1" fill-opacity="0" stroke="#000000" stroke-width="1" stroke-opacity="0"></use></g></g><g><use xlink:href="#c4dDloF4Pb" opacity="1" fill="#e6e6e6" fill-opacity="1"></use><g><use xlink:href="#c4dDloF4Pb" opacity="1" fill-opacity="0" stroke="#000000" stroke-width="1" stroke-opacity="0"></use></g></g><g><use xlink:href="#i2p7GqRYI" opacity="1" fill="#000000" fill-opacity="0"></use><g><use xlink:href="#i2p7GqRYI" opacity="1" fill-opacity="0" stroke="#000000" stroke-width="1" stroke-opacity="0"></use></g></g><g><use xlink:href="#ccwp8Us5o" opacity="1" fill="url(#gradientc9wEm2ILc)"></use><g><use xlink:href="#ccwp8Us5o" opacity="1" fill-opacity="0" stroke="#000000" stroke-width="1" stroke-opacity="0"></use></g></g><g><use xlink:href="#f8wEH9Xuy" opacity="1" fill="#000000" fill-opacity="0"></use><g><use xlink:href="#f8wEH9Xuy" opacity="1" fill-opacity="0" stroke="#000000" stroke-width="1" stroke-opacity="0"></use></g></g><g><use xlink:href="#f1tk4oTuIS" opacity="1" fill="url(#gradientaT3DWxGXI)"></use><g><use xlink:href="#f1tk4oTuIS" opacity="1" fill-opacity="0" stroke="#000000" stroke-width="1" stroke-opacity="0"></use></g></g><g><use xlink:href="#eiWxlddIf" opacity="1" fill="#000000" fill-opacity="0"></use><g><use xlink:href="#eiWxlddIf" opacity="1" fill-opacity="0" stroke="#000000" stroke-width="1" stroke-opacity="0"></use></g></g><g><use xlink:href="#c8lthlzmB" opacity="1" fill="#2f2e41" fill-opacity="1"></use><g><use xlink:href="#c8lthlzmB" opacity="1" fill-opacity="0" stroke="#000000" stroke-width="1" stroke-opacity="0"></use></g></g><g><use xlink:href="#bIB7FOdeU" opacity="1" fill="#000000" fill-opacity="0"></use><g><use xlink:href="#bIB7FOdeU" opacity="1" fill-opacity="0" stroke="#000000" stroke-width="1" stroke-opacity="0"></use></g></g><g><use xlink:href="#l2gwlZJh9U" opacity="1" fill="#e6e6e6" fill-opacity="1"></use><g><use xlink:href="#l2gwlZJh9U" opacity="1" fill-opacity="0" stroke="#000000" stroke-width="1" stroke-opacity="0"></use></g></g><g><use xlink:href="#aC7zxyQry" opacity="1" fill="#000000" fill-opacity="0"></use><g><use xlink:href="#aC7zxyQry" opacity="1" fill-opacity="0" stroke="#000000" stroke-width="1" stroke-opacity="0"></use></g></g><g><use xlink:href="#a1cOHDirpM" opacity="1" fill="#2f2e41" fill-opacity="1"></use><g><use xlink:href="#a1cOHDirpM" opacity="1" fill-opacity="0" stroke="#000000" stroke-width="1" stroke-opacity="0"></use></g></g><g><use xlink:href="#a1VJ4Icsed" opacity="1" fill="#000000" fill-opacity="0"></use><g><use xlink:href="#a1VJ4Icsed" opacity="1" fill-opacity="0" stroke="#000000" stroke-width="1" stroke-opacity="0"></use></g></g><g><use xlink:href="#b6rB6B1JW3" opacity="1" fill="#2f2e41" fill-opacity="1"></use><g><use xlink:href="#b6rB6B1JW3" opacity="1" fill-opacity="0" stroke="#000000" stroke-width="1" stroke-opacity="0"></use></g></g><g><use xlink:href="#aV85zLtja" opacity="1" fill="#000000" fill-opacity="0"></use><g><use xlink:href="#aV85zLtja" opacity="1" fill-opacity="0" stroke="#000000" stroke-width="1" stroke-opacity="0"></use></g></g><g><use xlink:href="#i2Htv8hLL2" opacity="1" fill="#e6e6e6" fill-opacity="1"></use><g><use xlink:href="#i2Htv8hLL2" opacity="1" fill-opacity="0" stroke="#000000" stroke-width="1" stroke-opacity="0"></use></g></g><g><use xlink:href="#a1LouhZmY6" opacity="1" fill="#000000" fill-opacity="0"></use><g><use xlink:href="#a1LouhZmY6" opacity="1" fill-opacity="0" stroke="#000000" stroke-width="1" stroke-opacity="0"></use></g></g><g><use xlink:href="#epwwqDSwN" opacity="1" fill="#e6e6e6" fill-opacity="1"></use><g><use xlink:href="#epwwqDSwN" opacity="1" fill-opacity="0" stroke="#000000" stroke-width="1" stroke-opacity="0"></use></g></g><g><use xlink:href="#d4GjQ59yFh" opacity="1" fill="#000000" fill-opacity="0"></use><g><use xlink:href="#d4GjQ59yFh" opacity="1" fill-opacity="0" stroke="#000000" stroke-width="1" stroke-opacity="0"></use></g></g><g><use xlink:href="#bWddmw2su" opacity="1" fill="#2f2e41" fill-opacity="1"></use><g><use xlink:href="#bWddmw2su" opacity="1" fill-opacity="0" stroke="#000000" stroke-width="1" stroke-opacity="0"></use></g></g><g><use xlink:href="#axeZ9amhs" opacity="1" fill="#000000" fill-opacity="0"></use><g><use xlink:href="#axeZ9amhs" opacity="1" fill-opacity="0" stroke="#000000" stroke-width="1" stroke-opacity="0"></use></g></g><g><use xlink:href="#b3lNgCFZ2g" opacity="1" fill="#2f2e41" fill-opacity="1"></use><g><use xlink:href="#b3lNgCFZ2g" opacity="1" fill-opacity="0" stroke="#000000" stroke-width="1" stroke-opacity="0"></use></g></g><g><use xlink:href="#g2aDU54fKi" opacity="1" fill="#000000" fill-opacity="0"></use><g><use xlink:href="#g2aDU54fKi" opacity="1" fill-opacity="0" stroke="#000000" stroke-width="1" stroke-opacity="0"></use></g></g><g><use xlink:href="#aiuQUW3td" opacity="1" fill="#2f2e41" fill-opacity="1"></use><g><use xlink:href="#aiuQUW3td" opacity="1" fill-opacity="0" stroke="#000000" stroke-width="1" stroke-opacity="0"></use></g></g><g><use xlink:href="#k3SwTY6Ewy" opacity="1" fill="#000000" fill-opacity="0"></use><g><use xlink:href="#k3SwTY6Ewy" opacity="1" fill-opacity="0" stroke="#000000" stroke-width="1" stroke-opacity="0"></use></g></g><g><use xlink:href="#burX28kIC" opacity="1" fill="#2f2e41" fill-opacity="1"></use><g><use xlink:href="#burX28kIC" opacity="1" fill-opacity="0" stroke="#000000" stroke-width="1" stroke-opacity="0"></use></g></g><g><use xlink:href="#bXyrfHB3Z" opacity="1" fill="#000000" fill-opacity="0"></use><g><use xlink:href="#bXyrfHB3Z" opacity="1" fill-opacity="0" stroke="#000000" stroke-width="1" stroke-opacity="0"></use></g></g><g><use xlink:href="#b2F8L3o3P6" opacity="1" fill="#2f2e41" fill-opacity="1"></use><g><use xlink:href="#b2F8L3o3P6" opacity="1" fill-opacity="0" stroke="#000000" stroke-width="1" stroke-opacity="0"></use></g></g><g><use xlink:href="#b1gZhGeci" opacity="1" fill="#000000" fill-opacity="0"></use><g><use xlink:href="#b1gZhGeci" opacity="1" fill-opacity="0" stroke="#000000" stroke-width="1" stroke-opacity="0"></use></g></g><g><use xlink:href="#b6cPRBShM" opacity="1" fill="#2f2e41" fill-opacity="1"></use><g><use xlink:href="#b6cPRBShM" opacity="1" fill-opacity="0" stroke="#000000" stroke-width="1" stroke-opacity="0"></use></g></g><g><use xlink:href="#c6F6kUpmL6" opacity="1" fill="#000000" fill-opacity="0"></use><g><use xlink:href="#c6F6kUpmL6" opacity="1" fill-opacity="0" stroke="#000000" stroke-width="1" stroke-opacity="0"></use></g></g><g><use xlink:href="#b2wpT2puK" opacity="1" fill="#2f2e41" fill-opacity="1"></use><g><use xlink:href="#b2wpT2puK" opacity="1" fill-opacity="0" stroke="#000000" stroke-width="1" stroke-opacity="0"></use></g></g><g><use xlink:href="#c48J6l2kEe" opacity="1" fill="#000000" fill-opacity="0"></use><g><use xlink:href="#c48J6l2kEe" opacity="1" fill-opacity="0" stroke="#000000" stroke-width="1" stroke-opacity="0"></use></g></g><g><use xlink:href="#fhSJsbiNS" opacity="1" fill="#000000" fill-opacity="1"></use><g><use xlink:href="#fhSJsbiNS" opacity="1" fill-opacity="0" stroke="#000000" stroke-width="1" stroke-opacity="0"></use></g></g><g><use xlink:href="#a1DRsiLQyH" opacity="1" fill="#000000" fill-opacity="0"></use><g><use xlink:href="#a1DRsiLQyH" opacity="1" fill-opacity="0" stroke="#000000" stroke-width="1" stroke-opacity="0"></use></g></g><g><use xlink:href="#a3nFBuXGC" opacity="1" fill="#6c63ff" fill-opacity="1"></use><g><use xlink:href="#a3nFBuXGC" opacity="1" fill-opacity="0" stroke="#000000" stroke-width="1" stroke-opacity="0"></use></g></g><g><use xlink:href="#b1JXiAAmGB" opacity="1" fill="#000000" fill-opacity="0"></use><g><use xlink:href="#b1JXiAAmGB" opacity="1" fill-opacity="0" stroke="#000000" stroke-width="1" stroke-opacity="0"></use></g></g><g><use xlink:href="#d1jURI3Dah" opacity="1" fill="#6c63ff" fill-opacity="1"></use><g><use xlink:href="#d1jURI3Dah" opacity="1" fill-opacity="0" stroke="#000000" stroke-width="1" stroke-opacity="0"></use></g></g><g><use xlink:href="#b7SLOIrU9" opacity="1" fill="#000000" fill-opacity="0"></use><g><use xlink:href="#b7SLOIrU9" opacity="1" fill-opacity="0" stroke="#000000" stroke-width="1" stroke-opacity="0"></use></g></g><g><use xlink:href="#b1MfaXpKv" opacity="1" fill="#e6e6e6" fill-opacity="1"></use><g><use xlink:href="#b1MfaXpKv" opacity="1" fill-opacity="0" stroke="#000000" stroke-width="1" stroke-opacity="0"></use></g></g><g><use xlink:href="#ahCTJwJoy" opacity="1" fill="#000000" fill-opacity="0"></use><g><use xlink:href="#ahCTJwJoy" opacity="1" fill-opacity="0" stroke="#000000" stroke-width="1" stroke-opacity="0"></use></g></g><g><use xlink:href="#dugDJ3tnN" opacity="1" fill="#2f2e41" fill-opacity="1"></use><g><use xlink:href="#dugDJ3tnN" opacity="1" fill-opacity="0" stroke="#000000" stroke-width="1" stroke-opacity="0"></use></g></g><g><use xlink:href="#cIolXg6tG" opacity="1" fill="#000000" fill-opacity="0"></use><g><use xlink:href="#cIolXg6tG" opacity="1" fill-opacity="0" stroke="#000000" stroke-width="1" stroke-opacity="0"></use></g></g><g><use xlink:href="#ar3RvT9E9" opacity="1" fill="#6c63ff" fill-opacity="1"></use><g><use xlink:href="#ar3RvT9E9" opacity="1" fill-opacity="0" stroke="#000000" stroke-width="1" stroke-opacity="0"></use></g></g><g><use xlink:href="#aw4Qh6laT" opacity="1" fill="#000000" fill-opacity="0"></use><g><use xlink:href="#aw4Qh6laT" opacity="1" fill-opacity="0" stroke="#000000" stroke-width="1" stroke-opacity="0"></use></g></g><g><use xlink:href="#b2AVj6FoZg" opacity="1" fill="#6c63ff" fill-opacity="1"></use><g><use xlink:href="#b2AVj6FoZg" opacity="1" fill-opacity="0" stroke="#000000" stroke-width="1" stroke-opacity="0"></use></g></g><g><use xlink:href="#a1nVo6gD1D" opacity="1" fill="#000000" fill-opacity="0"></use><g><use xlink:href="#a1nVo6gD1D" opacity="1" fill-opacity="0" stroke="#000000" stroke-width="1" stroke-opacity="0"></use></g></g><g><use xlink:href="#bfl84Sncz" opacity="1" fill="#2f2e41" fill-opacity="1"></use><g><use xlink:href="#bfl84Sncz" opacity="1" fill-opacity="0" stroke="#000000" stroke-width="1" stroke-opacity="0"></use></g></g><g><use xlink:href="#bh3jgozuc" opacity="1" fill="#000000" fill-opacity="0"></use><g><use xlink:href="#bh3jgozuc" opacity="1" fill-opacity="0" stroke="#000000" stroke-width="1" stroke-opacity="0"></use></g></g><g><use xlink:href="#bemIzvPDG" opacity="1" fill="#e6e6e6" fill-opacity="1"></use><g><use xlink:href="#bemIzvPDG" opacity="1" fill-opacity="0" stroke="#000000" stroke-width="1" stroke-opacity="0"></use></g></g><g><use xlink:href="#d1rptd2TBu" opacity="1" fill="#000000" fill-opacity="0"></use><g><use xlink:href="#d1rptd2TBu" opacity="1" fill-opacity="0" stroke="#000000" stroke-width="1" stroke-opacity="0"></use></g></g><g><use xlink:href="#cwGcuKI66" opacity="1" fill="#3f3d56" fill-opacity="1"></use><g><use xlink:href="#cwGcuKI66" opacity="1" fill-opacity="0" stroke="#000000" stroke-width="1" stroke-opacity="0"></use></g></g><g><use xlink:href="#a3wWJiRs3y" opacity="1" fill="#000000" fill-opacity="0"></use><g><use xlink:href="#a3wWJiRs3y" opacity="1" fill-opacity="0" stroke="#000000" stroke-width="1" stroke-opacity="0"></use></g></g><g><use xlink:href="#e2uONGDuix" opacity="1" fill="#3f3d56" fill-opacity="1"></use><g><use xlink:href="#e2uONGDuix" opacity="1" fill-opacity="0" stroke="#000000" stroke-width="1" stroke-opacity="0"></use></g></g><g><use xlink:href="#d18aLIxBaZ" opacity="1" fill="#000000" fill-opacity="0"></use><g><use xlink:href="#d18aLIxBaZ" opacity="1" fill-opacity="0" stroke="#000000" stroke-width="1" stroke-opacity="0"></use></g></g><g><use xlink:href="#b5ZRDeYqun" opacity="1" fill="#ece5dd" fill-opacity="1"></use><g><use xlink:href="#b5ZRDeYqun" opacity="1" fill-opacity="0" stroke="#000000" stroke-width="1" stroke-opacity="0"></use></g></g><g><use xlink:href="#bnmF4praV" opacity="1" fill="#000000" fill-opacity="0"></use><g><use xlink:href="#bnmF4praV" opacity="1" fill-opacity="0" stroke="#000000" stroke-width="1" stroke-opacity="0"></use></g></g><g><use xlink:href="#a1obtS3s8X" opacity="1" fill="#ece5dd" fill-opacity="1"></use><g><use xlink:href="#a1obtS3s8X" opacity="1" fill-opacity="0" stroke="#000000" stroke-width="1" stroke-opacity="0"></use></g></g><g><use xlink:href="#bj2fMbY7h" opacity="1" fill="#000000" fill-opacity="0"></use><g><use xlink:href="#bj2fMbY7h" opacity="1" fill-opacity="0" stroke="#000000" stroke-width="1" stroke-opacity="0"></use></g></g><g><use xlink:href="#h6QOoPWPN" opacity="1" fill="#ece5dd" fill-opacity="1"></use><g><use xlink:href="#h6QOoPWPN" opacity="1" fill-opacity="0" stroke="#000000" stroke-width="1" stroke-opacity="0"></use></g></g><g><use xlink:href="#e3xzlMJcx" opacity="1" fill="#000000" fill-opacity="0"></use><g><use xlink:href="#e3xzlMJcx" opacity="1" fill-opacity="0" stroke="#000000" stroke-width="1" stroke-opacity="0"></use></g></g><g><use xlink:href="#cnOwlKpMD" opacity="1" fill="#ece5dd" fill-opacity="1"></use><g><use xlink:href="#cnOwlKpMD" opacity="1" fill-opacity="0" stroke="#000000" stroke-width="1" stroke-opacity="0"></use></g></g><g><use xlink:href="#gSVdm3bvz" opacity="1" fill="#000000" fill-opacity="0"></use><g><use xlink:href="#gSVdm3bvz" opacity="1" fill-opacity="0" stroke="#000000" stroke-width="1" stroke-opacity="0"></use></g></g><g><use xlink:href="#b12RGgX0Cy" opacity="1" fill="#fe5022" fill-opacity="1"></use><g><use xlink:href="#b12RGgX0Cy" opacity="1" fill-opacity="0" stroke="#000000" stroke-width="1" stroke-opacity="0"></use></g></g><g><use xlink:href="#dMRIDILrA" opacity="1" fill="#000000" fill-opacity="0"></use><g><use xlink:href="#dMRIDILrA" opacity="1" fill-opacity="0" stroke="#000000" stroke-width="1" stroke-opacity="0"></use></g></g><g><use xlink:href="#b1mJYCMlef" opacity="1" fill="#fe5022" fill-opacity="1"></use><g><use xlink:href="#b1mJYCMlef" opacity="1" fill-opacity="0" stroke="#000000" stroke-width="1" stroke-opacity="0"></use></g></g><g><use xlink:href="#b5oMJt4O7R" opacity="1" fill="#000000" fill-opacity="0"></use><g><use xlink:href="#b5oMJt4O7R" opacity="1" fill-opacity="0" stroke="#000000" stroke-width="1" stroke-opacity="0"></use></g></g><g><use xlink:href="#dWWMENZaf" opacity="1" fill="#fe5022" fill-opacity="1"></use><g><use xlink:href="#dWWMENZaf" opacity="1" fill-opacity="0" stroke="#000000" stroke-width="1" stroke-opacity="0"></use></g></g><g><use xlink:href="#d8epDXOzC" opacity="1" fill="#000000" fill-opacity="0"></use><g><use xlink:href="#d8epDXOzC" opacity="1" fill-opacity="0" stroke="#000000" stroke-width="1" stroke-opacity="0"></use></g></g><g><use xlink:href="#bTnogHLvv" opacity="1" fill="#ece5dd" fill-opacity="1"></use><g><use xlink:href="#bTnogHLvv" opacity="1" fill-opacity="0" stroke="#000000" stroke-width="1" stroke-opacity="0"></use></g></g><g><use xlink:href="#e2A1QNiXjZ" opacity="1" fill="#000000" fill-opacity="0"></use><g><use xlink:href="#e2A1QNiXjZ" opacity="1" fill-opacity="0" stroke="#000000" stroke-width="1" stroke-opacity="0"></use></g></g></g></g></svg>