<?xml version="1.0" encoding="UTF-8" standalone="no"?>
<!DOCTYPE svg PUBLIC "-//W3C//DTD SVG 1.1//EN" "http://www.w3.org/Graphics/SVG/1.1/DTD/svg11.dtd">
<svg version="1.1" xmlns="http://www.w3.org/2000/svg" xmlns:xlink="http://www.w3.org/1999/xlink" preserveAspectRatio="xMidYMid meet" viewBox="0 0 640 640" width="640" height="640"><defs><path d="M304.86 8.85C306.7 8.95 310.45 9.33 313.2 9.7C315.95 10.06 321.65 10.7 325.87 11.11C330.09 11.52 335.04 12.27 336.88 12.76C338.71 13.25 342.01 13.85 344.21 14.09C346.41 14.33 350.17 15.07 352.55 15.74C354.93 16.41 359.89 17.63 363.55 18.46C367.22 19.28 370.97 20.32 371.89 20.75C372.81 21.19 375.51 22.06 377.89 22.7C384.74 24.52 396.67 29.16 401.24 31.78C412.53 38.25 415.49 40.43 429.25 52.36C431.27 54.11 434.26 56.42 435.9 57.49C439.73 59.99 442.57 62.92 450.3 72.35C451.01 73.22 451.89 74.27 452.26 74.69C453.49 76.08 456.43 80.83 458.54 84.83C459.69 87 461.5 90.38 462.56 92.33C463.62 94.28 466.2 99.68 468.31 104.33C471.7 111.85 473.1 116.04 475.37 125.46C479.6 142.98 472.63 187.2 463.38 201.6C462.24 203.38 460.05 206.94 458.52 209.5C452.73 219.23 450.75 221.16 431.74 235.67C428.3 238.3 408.55 251.59 404.88 253.74C403.43 254.6 398.94 257.23 394.9 259.59C382.97 266.58 362.5 276.31 349.88 281C339.49 284.86 324.45 289.92 321.56 290.53C320.08 290.84 316.75 291.72 314.17 292.48C306.66 294.71 290.86 297.88 282.19 298.91C277.78 299.43 272.83 300.17 271.18 300.55C262.82 302.47 219.49 302.28 209.15 300.28C206.4 299.75 202.07 299.11 199.52 298.86C196.97 298.61 194.18 298.14 193.33 297.82C192.48 297.49 189.76 296.91 187.29 296.52C184.83 296.12 180.71 295.19 178.14 294.44C165.45 290.72 155.87 287.66 153.46 286.57C152 285.9 148.84 284.54 146.46 283.55C130.8 277.01 111.78 266.24 111.78 263.9C111.78 262.81 119.86 263.04 123.2 264.23C124.8 264.8 129.22 265.7 133.02 266.24C136.82 266.77 142.49 267.66 145.61 268.2C153.62 269.6 185.36 269.59 193.39 268.19C196.55 267.64 204.32 266.73 210.65 266.16C216.98 265.6 224.56 264.71 227.5 264.18C230.43 263.66 236.28 262.79 240.5 262.25C244.72 261.71 250.72 260.65 253.84 259.9C256.96 259.15 261.16 258.53 263.19 258.53C265.21 258.53 270.46 257.62 274.85 256.52C279.24 255.42 283.43 254.52 284.17 254.51C284.92 254.5 288.07 253.73 291.19 252.8C294.31 251.87 298.81 250.55 301.19 249.88C312.62 246.65 324.24 241.53 339.26 233.1C342.78 231.13 349.52 227.56 354.24 225.18C365.83 219.32 376.12 209.21 381.73 198.16C382.48 196.7 383.75 194.9 384.56 194.16C390.47 188.82 391.38 149 386.24 120.8C385.37 116.03 384.32 110.03 383.9 107.46C379.92 82.95 369.19 59.4 361.4 58.08C360.02 57.84 357.69 57.25 356.22 56.75C354.75 56.26 352.05 55.65 350.22 55.41C348.38 55.17 345.83 54.53 344.55 53.99C338.39 51.39 246.9 50.8 239.5 53.31C237.67 53.94 233.06 54.89 229.27 55.43C225.47 55.98 220.38 57.03 217.95 57.79C215.52 58.54 210.22 59.61 206.17 60.17C202.13 60.73 197.32 61.6 195.48 62.1C193.65 62.61 187.19 63.5 181.14 64.08C175.09 64.67 167.44 65.57 164.13 66.08C160.83 66.59 156.18 67.17 153.8 67.36C151.41 67.55 147.51 68.32 145.13 69.08C142.74 69.84 138.48 70.77 135.65 71.14C123.85 72.68 112.4 78.48 93.83 92.35C89.64 95.47 84.72 98.77 82.89 99.69C81.05 100.6 77.32 103.55 74.58 106.24C71.85 108.93 69.3 111.13 68.93 111.13C68.55 111.13 67.84 111.65 67.35 112.29C65.25 115.07 66.53 110.41 69.39 104.9C77.63 89 97.17 67.89 114.87 55.75C123.52 49.82 127.69 47.1 128.14 47.1C128.44 47.1 129.15 46.68 129.73 46.17C130.31 45.66 132.44 44.41 134.45 43.39C136.47 42.37 138.57 41.18 139.12 40.75C139.67 40.32 143.88 38.25 148.46 36.15C153.05 34.05 157.4 32.06 158.13 31.72C161.63 30.1 179.67 23.91 190.81 20.5C220.77 11.34 266.49 6.67 304.86 8.85M357.17 62.11C357.83 62.84 358.71 64.47 359.14 65.73C359.56 66.99 360.31 68.49 360.8 69.06C362.58 71.12 368.42 86.5 370.57 94.79C371.24 97.35 372.42 101.86 373.2 104.79C373.97 107.73 375.05 112.98 375.61 116.46C376.15 119.95 377.06 123.96 377.61 125.39C380.17 131.94 380.39 175.91 377.89 181.49C377.24 182.96 376.52 186.1 376.29 188.46C375.83 193.41 375.24 194.38 367.06 203.89C359.71 212.43 359.86 212.3 354.94 214.53C352.58 215.6 350.48 216.75 350.27 217.08C350.07 217.42 348.87 217.88 347.62 218.12C346.37 218.35 344.64 219.1 343.78 219.77C342.92 220.45 339.14 222.57 335.38 224.49C331.62 226.42 328.54 228.25 328.54 228.58C328.54 228.91 328.08 229.18 327.53 229.18C326.97 229.18 325.09 229.9 323.36 230.78C321.62 231.66 318.1 233.18 315.53 234.15C312.97 235.12 310.26 236.18 309.53 236.5C304.84 238.56 299.4 240.71 294.19 242.55C290.89 243.72 287.9 244.94 287.55 245.26C287.21 245.59 284.66 245.86 281.89 245.86C279.12 245.86 275.2 246.35 273.18 246.94C271.16 247.53 266.45 248.26 262.71 248.56C258.97 248.87 254.01 249.69 251.7 250.4C249.39 251.11 246.3 251.87 244.84 252.08C243.37 252.28 238.57 252.95 234.16 253.55C229.76 254.15 224.51 255.19 222.49 255.85C219.51 256.83 216.65 257.06 207.15 257.04C198.6 257.03 193.97 257.34 189.81 258.19C181.84 259.83 154.68 259.95 148.79 258.37C146.59 257.77 142.39 257.1 139.46 256.86C136.52 256.62 131.42 255.66 128.12 254.72C124.82 253.79 119.95 252.64 117.3 252.17C110.95 251.03 105.11 248.37 105.11 246.61C105.11 245.16 103.92 243.62 98.34 237.88C96.27 235.75 94.35 233.29 94.08 232.42C93.81 231.56 93.02 229.8 92.34 228.52C91.66 227.24 91.1 225.88 91.1 225.5C91.1 224.81 87.44 217.43 86.46 216.17C86.18 215.81 85.75 213.26 85.51 210.53C85.26 207.79 84.65 204.91 84.14 204.13C82.34 201.4 80.11 176.29 81.24 171.66C81.84 169.21 81.82 167.54 81.16 164.22C79.93 158.02 79.98 145.02 81.25 140.14C81.83 137.94 82.5 133.9 82.75 131.17C83.06 127.82 83.62 125.68 84.49 124.58C85.19 123.69 85.77 121.96 85.77 120.75C85.77 119.53 86.02 118.38 86.34 118.19C86.65 117.99 87.89 115.8 89.09 113.31C90.28 110.83 91.86 107.59 92.59 106.12C93.38 104.54 95.64 102.11 98.18 100.13C100.52 98.3 102.44 96.43 102.44 95.96C102.44 95.5 102.68 95.12 102.98 95.12C103.27 95.12 104.7 94.03 106.15 92.7C109.88 89.26 119.89 83.22 121.99 83.14C122.28 83.12 123.9 82.49 125.58 81.72C127.32 80.93 131.13 80.08 134.38 79.75C137.54 79.44 142.92 78.41 146.34 77.48C149.76 76.54 153.89 75.78 155.51 75.78C157.13 75.78 160.19 75.2 162.3 74.49C165.38 73.46 168.64 73.15 178.81 72.9C188.59 72.67 192.62 72.31 196.48 71.28C199.23 70.55 203.68 69.76 206.37 69.52C209.05 69.29 212.96 68.52 215.04 67.82C217.12 67.12 221.68 66.03 225.16 65.41C228.65 64.79 233.41 63.7 235.74 62.99C244.27 60.41 354.91 59.6 357.17 62.11M283.4 75.63C269.12 80.69 259.57 91.58 258.98 103.5C258.34 116.55 260.11 124.06 265.27 130.09C268.4 133.74 273.29 138.47 273.94 138.47C274.23 138.47 276.21 139.3 278.33 140.31C286.72 144.3 307.35 142.7 312.63 137.66C313.12 137.18 314.33 136.27 315.32 135.65C323.95 130.13 331.56 118.13 332.36 108.78C332.67 105.15 330.41 94.87 328.91 93.12C328.44 92.57 327.22 90.62 326.19 88.78C319.32 76.49 298.78 70.17 283.4 75.63M137.79 96.08C135.77 97.47 133.49 99.25 132.71 100.04C131.93 100.82 130.34 102.21 129.18 103.12C124.85 106.53 123.61 107.8 121.72 110.78C120.65 112.47 119.78 114.03 119.78 114.26C119.78 114.5 119.37 115.16 118.87 115.74C111.83 123.91 116.94 145.36 127.71 152.8C138.42 160.2 149.8 160.6 163.8 154.07C170.51 150.93 171.45 150.33 173.99 147.56C186.57 133.79 188.92 117.4 179.7 107.72C178.11 106.05 175.98 103.42 174.97 101.88C173.95 100.34 172.42 98.81 171.56 98.49C170.7 98.16 168.42 96.93 166.51 95.74C159.78 91.61 143.98 91.79 137.79 96.08M601.33 126.26C602.95 126.88 604.77 128.69 605.39 130.3C605.81 131.4 606.5 131.8 607.96 131.8C609.27 131.8 610.19 132.26 610.66 133.14C611.05 133.87 611.83 134.47 612.38 134.47C612.92 134.47 613.56 134.97 613.79 135.57C614.27 136.8 617.93 140.47 618.69 140.47C618.96 140.47 619.34 141.07 619.53 141.81C619.72 142.54 620.35 143.14 620.94 143.14C621.52 143.14 622 143.58 622 144.11C622 144.64 623.01 145.56 624.24 146.14C625.47 146.73 626.89 148.01 627.39 149.01C627.89 150 628.83 151.35 629.48 152C630.14 152.66 630.67 154.15 630.67 155.31C630.67 156.91 631.37 158.15 633.51 160.32C633.7 160.51 634.64 161.47 636.34 163.21L636.34 173.91L636.34 184.62C635.24 185.5 634.63 185.98 634.51 186.08C633.5 186.88 632.67 188.01 632.67 188.58C632.67 192.59 618.28 194.33 614.12 190.83C611.49 188.61 611.12 182.73 613.33 178.16C615.08 174.54 615.09 168.55 613.36 165.28C612.64 163.93 611.88 161.99 611.68 160.98C611.47 159.97 610.88 159.15 610.36 159.15C609.84 159.15 609.23 158.55 609 157.81C608.76 157.08 608.17 156.48 607.67 156.48C607.17 156.48 604.77 154.54 602.33 152.17C599.89 149.81 597.32 147.69 596.61 147.46C595.9 147.24 595.32 146.62 595.32 146.1C595.32 145.57 594.77 145.14 594.09 145.14C593.42 145.14 592.32 144.54 591.65 143.81C590.53 142.57 589.6 142.47 578.71 142.47C567.69 142.47 566.91 142.56 566.13 143.81C565.61 144.64 564.58 145.14 563.38 145.14C562.03 145.14 561.36 145.53 561.11 146.48C560.92 147.21 560.29 147.81 559.7 147.81C559.12 147.81 558.64 148.29 558.64 148.87C558.64 149.46 558.08 150.08 557.38 150.26C556.37 150.53 556.07 151.37 555.84 154.51C555.65 157.15 555.13 158.9 554.27 159.86C552.18 162.17 552.39 186.12 554.52 188.82C555.73 190.36 555.97 191.54 555.97 195.84C555.97 200.45 556.12 201.05 557.31 201.36C558.44 201.65 558.64 202.27 558.64 205.36C558.64 208.45 558.85 209.07 559.97 209.36C560.74 209.56 561.31 210.27 561.31 211.03C561.31 211.79 561.88 212.5 562.64 212.7C563.78 212.99 563.98 213.61 563.98 216.78C563.98 220.06 564.13 220.51 565.31 220.51C566.25 220.51 566.65 220.95 566.65 222.01C566.67 224.55 567.42 226.51 568.39 226.51C568.9 226.51 569.31 227.07 569.31 227.75C569.31 228.44 569.93 229.79 570.69 230.76C571.53 231.81 572.22 233.95 572.45 236.13C572.74 238.91 573.11 239.81 574.07 240.07C575.11 240.34 575.31 241.05 575.31 244.46C575.31 248.08 575.46 248.52 576.65 248.52C577.75 248.52 577.98 248.97 577.98 251.11C577.98 253.14 578.27 253.78 579.32 254.05C580.22 254.28 580.65 254.96 580.65 256.12C580.65 257.12 581.21 258.2 581.98 258.68C583.06 259.35 583.32 260.24 583.32 263.23C583.32 266.14 583.68 267.42 584.99 269.2C586 270.58 586.65 272.35 586.65 273.75C586.65 275.11 587.1 276.38 587.74 276.85C588.42 277.34 588.95 279 589.17 281.26C589.35 283.29 589.9 285.1 590.41 285.4C591.66 286.13 591.64 293.79 590.39 295.58C589.78 296.44 589.37 299.31 589.22 303.78C589.03 309.38 588.77 310.81 587.82 311.51C586.82 312.24 586.65 313.53 586.65 320.74C586.65 329.52 586.39 331.22 585 331.22C584.05 331.22 583.34 334.7 583.32 339.39C583.32 341.66 582.94 342.94 581.98 343.9C581.25 344.63 580.65 346.12 580.65 347.23C580.65 348.5 580.17 349.52 579.32 350.05C578.58 350.51 577.98 351.39 577.98 352.01C577.98 352.64 577.41 353.32 576.72 353.54C575.93 353.79 575.29 354.83 575.02 356.26C574.76 357.64 574.2 358.57 573.62 358.57C573.08 358.57 572.65 359.14 572.65 359.84C572.65 361.21 569.11 364.57 567.67 364.57C567.19 364.57 566.64 365.17 566.45 365.91C566.26 366.64 565.62 367.24 565.04 367.24C564.45 367.24 563.98 367.72 563.98 368.3C563.98 368.89 563.38 369.52 562.64 369.71C561.88 369.91 561.31 370.62 561.31 371.38C561.31 372.14 560.74 372.85 559.97 373.05C559.24 373.24 558.64 373.84 558.64 374.38C558.64 374.92 558.07 375.52 557.37 375.7C556.67 375.88 555.95 376.6 555.76 377.31C555.57 378.05 554.85 378.58 554.03 378.58C553.08 378.58 552.64 379 552.64 379.91C552.64 380.8 552.19 381.25 551.3 381.25C550.53 381.25 549.97 381.69 549.97 382.31C549.97 382.89 549.4 383.52 548.7 383.7C548 383.89 547.28 384.59 547.1 385.27C546.9 386.05 545.91 386.66 544.37 386.94C543 387.2 541.97 387.79 541.97 388.31C541.97 388.81 541.22 389.41 540.3 389.64C539.38 389.87 538.63 390.33 538.63 390.67C538.63 391 537.81 391.65 536.82 392.1C535.82 392.55 534.21 393.74 533.24 394.75C532.28 395.76 531.12 396.59 530.68 396.59C530.24 396.59 530.03 396.83 530.21 397.12C530.86 398.18 519.31 398.08 517.69 397.02C516.15 396.02 510.62 385.91 510.62 384.11C510.62 383.57 509.57 380.74 508.28 377.82C505.26 370.94 505.15 367.91 507.91 367.91C508.99 367.91 510.06 367.61 510.29 367.24C510.51 366.87 511.37 366.57 512.19 366.57C513.02 366.57 514.09 366.2 514.58 365.74C515.31 365.05 515.4 365.17 515.11 366.41C514.81 367.64 515.02 367.91 516.33 367.91C517.49 367.91 517.81 367.63 517.51 366.87C517.25 366.17 517.58 365.7 518.51 365.46C519.28 365.26 520.09 364.53 520.31 363.83C520.53 363.14 521.1 362.57 521.57 362.57C522.03 362.57 522.94 362 523.57 361.3C524.21 360.6 525.46 359.84 526.36 359.61C527.26 359.39 528.59 358.61 529.31 357.88C530.04 357.16 531.31 356.57 532.14 356.57C532.96 356.57 534.02 355.97 534.47 355.23C535.01 354.38 536.03 353.9 537.3 353.9C538.58 353.9 539.3 353.56 539.3 352.95C539.3 352.43 540.57 350.67 542.13 349.03C543.69 347.4 546.32 344.51 547.97 342.61C549.62 340.72 552.1 337.96 553.47 336.48C555.17 334.64 555.97 333.16 555.97 331.84C555.97 330.76 556.53 329.33 557.22 328.65C558.04 327.82 558.57 326.09 558.78 323.53C559.01 320.74 559.47 319.36 560.43 318.59C561.16 318 561.94 316.37 562.17 314.97C562.39 313.57 562.96 311.97 563.42 311.41C564.78 309.77 565.96 305.77 565.97 302.71C565.97 301.15 566.28 299.88 566.64 299.88C567.95 299.88 567.43 292.65 566.07 291.92C565.18 291.45 564.73 290.22 564.45 287.57C564.24 285.53 563.64 283.44 563.12 282.92C562.47 282.27 562.06 279.71 561.8 274.79C561.52 269.16 561.2 267.43 560.33 266.8C559.63 266.28 559.08 264.61 558.84 262.26C558.59 259.81 558.15 258.52 557.58 258.52C557.09 258.52 556.49 257.43 556.24 256.1C555.99 254.76 555.23 253.11 554.55 252.43C553.86 251.75 553.3 250.5 553.3 249.67C553.3 248.83 552.7 247.64 551.97 247.01C551.13 246.29 550.64 245.04 550.64 243.63C550.64 242.29 550.13 240.94 549.38 240.26C548.67 239.61 547.95 237.77 547.71 235.94C547.39 233.5 546.75 232.24 544.96 230.51C543.68 229.27 542.63 227.75 542.63 227.14C542.63 226.52 541.99 225.2 541.19 224.19C540.34 223.11 539.63 221.04 539.45 219.13C539.25 217.13 538.66 215.47 537.88 214.76C537.07 214.03 536.63 212.73 536.63 211.07C536.63 209.32 536.33 208.5 535.7 208.5C534.48 208.5 533.96 207.03 533.96 203.55C533.96 201.62 533.56 200.34 532.72 199.58C531.78 198.73 531.39 197.2 531.15 193.47C530.94 190.32 530.45 188.06 529.8 187.32C529.18 186.62 528.46 183.62 528.01 179.82C527.59 176.34 527.07 172.21 526.87 170.64C526.66 169.07 526.79 167.42 527.16 166.97C527.53 166.52 528.04 163.84 528.3 161.02C528.65 157.26 529.11 155.58 530.04 154.74C530.77 154.08 531.29 152.72 531.29 151.46C531.29 148.93 533.53 145.81 535.35 145.81C536.27 145.81 536.63 145.34 536.63 144.14C536.63 143.22 537.2 141.9 537.9 141.21C538.59 140.51 539.37 139.01 539.62 137.87C540.09 135.7 541.63 134.47 543.85 134.47C544.58 134.47 545.3 133.9 545.49 133.14C545.76 132.11 546.4 131.8 548.24 131.8C550.19 131.8 550.64 131.56 550.64 130.47C550.64 129.61 551.08 129.13 551.89 129.13C552.58 129.13 553.59 128.46 554.14 127.63C554.2 127.53 554.54 127.03 555.13 126.13C568.69 126.06 576.22 126.01 577.73 126.01C590.16 125.94 600.78 126.05 601.33 126.26M499.95 146.14C501.52 147.76 501.89 148.48 501.16 148.48C500.58 148.48 499.95 147.88 499.75 147.14C499.56 146.39 498.84 145.81 498.12 145.81C497.41 145.81 496.83 145.36 496.83 144.81C496.83 143.31 497.46 143.57 499.95 146.14M505.21 153.28C505.33 155.11 503.89 157.67 502.55 158.03C501.11 158.4 501.89 156.3 503.55 155.34C504.05 155.05 504.62 154.21 504.8 153.48C505.05 152.45 505.15 152.4 505.21 153.28M172.76 203.26C167.18 206.05 162.47 212.78 162.47 217.97C162.47 225.33 170.77 234.94 178.22 236.19C179.64 236.43 181.82 236.94 183.06 237.32C185.27 238 187.26 237.66 192.63 235.69C199.95 233.02 204.76 220.76 200.84 214.78C200.28 213.92 199.82 212.71 199.82 212.08C199.82 205.2 181.09 199.1 172.76 203.26M486.58 247.28C516.67 252.27 521.36 304.19 493.77 326.79C489.43 330.35 488.2 330.06 487.25 325.27C485.35 315.7 480.09 302.95 474.81 295.1C468.27 285.39 457.21 273.21 449.93 267.68C446.43 265.03 446.21 263.13 449.11 260.69C463.27 248.8 473.55 245.12 486.58 247.28M450.79 280.03C453.92 283.43 457.71 287.85 459.21 289.87C460.71 291.89 463.5 295.64 465.41 298.21C471.47 306.33 477.32 320.46 478.98 330.95C479.77 335.99 475.96 338.08 464.98 338.64C454.77 339.16 450.78 339.92 443.81 342.66C436.57 345.5 436.22 345.37 432.26 338.16C429.33 332.84 420.93 319.47 419.93 318.55C419.73 318.37 418.69 317.02 417.61 315.55C416.53 314.08 413.69 310.83 411.28 308.33C406.19 303.04 405.36 301.44 407.06 300.14C408.57 299 408.8 299.01 411.68 300.21C421.97 304.51 437.82 292.22 440.67 277.73C441.84 271.78 443.51 272.16 450.79 280.03M551.28 294.84C552.38 296.17 551.88 298.82 550.47 299.08C549.54 299.26 549.3 298.84 549.3 296.96C549.3 294.3 550.11 293.44 551.28 294.84M368.22 296.37C368.96 296.54 371.22 298.23 373.24 300.12C378.17 304.7 382.12 308.14 387.54 312.55C394.14 317.93 402.74 327.96 408.73 337.28C420.2 355.11 421.79 361.61 416.22 367.91C415.73 368.46 413.71 372.37 411.71 376.59C407.47 385.58 407.84 385.22 400.57 387.46C396.59 388.69 393.41 390.26 389.9 392.73C385.29 395.98 374.91 402.71 372.56 403.97C369.66 405.52 366.51 406.86 363.22 407.94C356.51 410.14 346.25 414.01 345.53 414.61C345.14 414.93 343.48 415.4 341.85 415.65C340.21 415.89 335.43 417.21 331.21 418.58C326.99 419.95 321.97 421.28 320.06 421.52C318.15 421.77 314.55 422.74 312.06 423.68C308.7 424.95 306.81 425.29 304.72 425.01C303.17 424.8 298.67 425.05 294.72 425.57C290.76 426.09 279.87 426.86 270.51 427.29C259.68 427.79 251.32 428.51 247.5 429.29C242.45 430.31 239.46 430.45 228.82 430.14C218.51 429.84 215.42 429.97 212.17 430.83C204.35 432.9 204.03 431.86 208.55 419.15C210.42 413.89 213.6 404.64 215.62 398.59C217.64 392.53 219.68 386.68 220.15 385.58C222.62 379.82 226.04 358.99 227.16 342.89C228.7 320.84 227.83 322.25 240.03 322.1C265.97 321.77 283.85 319.76 306.86 314.6C325.59 310.4 337.25 306.86 357.22 299.31C365.43 296.21 366.45 295.94 368.22 296.37M557.02 303.43C558.26 306.67 557.02 310.21 554.64 310.21C554.48 310.21 553.7 310.21 552.3 310.21C552.3 308.01 552.3 306.79 552.3 306.55C552.3 302.76 555.86 300.41 557.02 303.43M173.77 343.3C177.12 344.64 177.22 345.12 174.8 348.48C162.16 366.08 157.41 417.45 166.66 436.5C169.4 442.14 168.94 442.87 162.53 443.14C154.93 443.45 142.85 438.88 134.65 432.6C120.82 422.01 112.13 384.06 120.06 368.91C120.63 367.81 121.11 366.59 121.11 366.2C121.13 363.1 128.69 353.35 133.47 350.27C142.8 344.25 166.08 340.23 173.77 343.3M194.15 344.95C205.95 346.38 206.49 346.69 206.48 352.11C206.46 357.09 204.14 371.17 202.59 375.71C201.86 377.84 200.81 381.38 200.27 383.58C199.3 387.48 195.79 397.58 194.47 400.25C192.68 403.88 184.36 430.86 183.78 434.94C182.34 444.92 173.37 446.46 173.73 436.66C173.81 434.45 173.2 429.11 172.38 424.79C169.38 408.92 170.45 383.73 174.63 371.91C178.22 361.73 180.64 353.15 180.96 349.4C181.31 345.39 183.46 343.28 186.48 343.98C186.66 344.02 190.11 344.46 194.15 344.95M368.22 345.84C355.75 350.62 351.46 353.7 347.26 360.89C343.59 367.19 343.58 367.12 348.62 374.65C349.94 376.62 352.11 379.94 353.45 382.01C362.16 395.58 370.39 395.37 384.75 381.21C392.98 373.09 394.04 369.66 389.94 364.44C389.24 363.55 387.26 360.14 385.53 356.86C379.27 344.98 375.97 342.88 368.22 345.84M373.8 355.73C375.27 356.98 379.02 363.71 379.92 366.73C381.53 372.13 372.43 380.79 366.35 379.65C362.46 378.92 357.25 369.15 358.16 364.3C359.11 359.27 370.55 353 373.8 355.73M473.27 362.53C473.27 363.62 472.32 363.72 470.6 362.81C470.49 362.75 469.93 362.45 468.93 361.92C470.23 361.92 470.96 361.91 471.1 361.91C472.29 361.91 473.27 362.19 473.27 362.53M307.05 368.21C291.73 371.46 285.87 385.49 294.54 398.14C302.48 409.72 326.79 406.13 330.49 392.82C332.46 385.73 328.91 374.16 323.61 370.39C319.75 367.64 313.58 366.83 307.05 368.21M233.66 376.61C229.1 377.88 228.31 379.38 228.79 385.91C229.12 390.31 228.91 393.01 227.87 397.92C224.57 413.39 225.26 413.92 248.58 413.92C266.22 413.93 265.93 414.03 268.77 406.93C272.74 397.02 271.03 385.68 264.76 380.26C264.51 380.05 263.29 378.99 261.07 377.08C256.2 376.79 253.5 376.63 252.95 376.59C240.47 375.85 236.38 375.86 233.66 376.61M314.23 383.01C318.29 387.39 314.2 392.21 307.5 390.95C303.13 390.14 302.66 385.03 306.71 382.56C309.72 380.73 312.26 380.88 314.23 383.01M250.12 386.67C258.88 387.23 261.57 388 262.25 390.15C262.8 391.89 262.79 403.99 262.24 405.74C261.78 407.17 257.58 408.92 256.37 408.18C255.93 407.9 251.1 407.5 245.64 407.29C233.96 406.84 233.81 406.74 233.87 400.29C234 387.12 235.65 385.74 250.12 386.67M401.08 405.61C401.42 406.23 401.17 410.3 400.43 415.79C397.39 438.47 398.6 477.13 402.93 495.84C405.13 505.36 401.74 510.61 384.44 524.41C381.97 526.38 379.13 528.74 378.14 529.67C377.14 530.59 374.65 532.28 372.61 533.43C370.56 534.58 368.29 536.05 367.56 536.7C364.59 539.34 344.94 549.63 338.42 551.96C336.47 552.66 332.77 554 330.21 554.94C324.92 556.88 317.89 558.66 315.54 558.66C314.47 558.66 312.79 557.41 310.41 554.86C298.76 542.39 284.85 530.46 272.82 522.64C266.64 518.63 257.6 512.98 256.87 512.69C256.49 512.54 254.83 511.48 253.18 510.33C244.66 504.4 227.28 495.55 211.83 489.28C203.07 485.71 200.81 479.2 200.84 457.61C200.86 441.66 201.96 439.54 209.39 441.18C211.28 441.6 220.18 442.07 229.16 442.22C238.15 442.38 250.46 442.72 256.51 442.98C268.14 443.49 271.31 443.1 281.76 439.9C284.93 438.93 287.94 438.61 293.76 438.61C298.03 438.62 304.98 438.19 309.2 437.65C313.42 437.12 319.72 436.37 323.2 435.98C329.72 435.25 342.27 431.67 346.07 429.46C349.01 427.74 355.27 425.59 361 424.33C367.28 422.94 368.81 422.32 371.76 419.97C373.12 418.88 376.63 416.98 379.56 415.72C386.82 412.63 394.33 408.81 397.7 406.49C400.11 404.84 400.58 404.72 401.08 405.61M177.32 500.44C179.61 500.79 179.05 501.97 176.6 501.95C174.15 501.94 172.62 500.97 174.14 500.39C174.75 500.16 175.3 500.01 175.36 500.06C175.42 500.12 176.3 500.29 177.32 500.44" id="c3EZtnit2J"></path><path d="M296.86 6.84C322.2 8.13 351.7 12.75 370.89 18.44C384.16 22.37 385.92 22.95 391.9 25.38C403.66 30.16 420.02 39.85 424.58 44.74C426.59 46.9 436.45 55.1 439.45 57.1C449.3 63.69 465.29 87.64 472.99 107.32C483.15 133.31 481.29 169.01 468.2 198.83C466.94 201.71 457.14 217 454.45 220.29C452.43 222.77 438.35 234.13 429.25 240.62C423.25 244.9 412.88 251.86 412.49 251.86C412.29 251.86 411.32 252.42 410.35 253.11C402.17 258.92 379.57 270.78 361.14 278.93C285.29 312.47 199.75 311.96 131.79 277.57C121.42 272.32 111.54 266.52 109.03 264.21C108.63 263.84 107.05 262.5 105.53 261.24C102.41 258.65 101.97 256.5 104.23 254.91C105.04 254.35 105.56 253.8 105.4 253.7C105.24 253.6 104.22 253.07 103.13 252.51C101.33 251.59 101.17 251.22 101.32 248.51C101.48 245.84 101.13 245.01 98.11 240.85C94.84 236.33 90.1 227.33 90.1 225.63C90.1 225.17 89.48 223.6 88.71 222.15C87.12 219.13 82.44 202.48 81.78 197.5C81.54 195.66 80.91 192.48 80.39 190.43C78.14 181.53 77.89 144.52 80.03 135.8C80.8 132.69 81.42 129.38 81.43 128.47C81.43 127.55 82.33 125 83.43 122.8C84.53 120.6 85.43 118.35 85.44 117.8C85.44 117.25 86.22 115.15 87.17 113.13C94.93 96.65 89.38 95.67 73.82 110.76C65.44 118.88 63.17 120.13 63.82 116.3C64.29 113.51 69.83 102.61 73.39 97.45C74.91 95.25 76.85 92.4 77.71 91.12C112.48 38.94 207.76 2.3 296.86 6.84M258.84 9.1C237.01 10.57 209.52 15.29 192.48 20.5C181.34 23.91 163.3 30.1 159.8 31.72C159.07 32.06 154.71 34.05 150.13 36.15C145.54 38.25 141.34 40.32 140.79 40.75C140.24 41.18 138.14 42.37 136.12 43.39C134.1 44.41 131.98 45.66 131.4 46.17C130.82 46.68 130.1 47.1 129.81 47.1C129.36 47.1 125.19 49.82 116.54 55.75C98.84 67.89 79.3 89 71.05 104.9C68.2 110.41 66.91 115.07 69.02 112.29C69.51 111.65 70.22 111.13 70.59 111.13C70.97 111.13 73.52 108.93 76.25 106.24C78.98 103.55 82.72 100.6 84.55 99.69C86.39 98.77 91.31 95.47 95.5 92.35C114.07 78.48 125.51 72.68 137.32 71.14C140.15 70.77 144.41 69.84 146.79 69.08C149.18 68.32 153.08 67.55 155.46 67.36C157.85 67.17 162.5 66.59 165.8 66.08C169.1 65.57 176.76 64.67 182.81 64.08C188.86 63.5 195.31 62.61 197.15 62.1C198.98 61.6 203.79 60.73 207.84 60.17C211.88 59.61 217.19 58.54 219.61 57.79C222.05 57.03 227.14 55.98 230.93 55.43C234.73 54.89 239.33 53.94 241.17 53.31C248.57 50.8 340.06 51.39 346.21 53.99C347.5 54.53 350.05 55.17 351.88 55.41C353.72 55.65 356.42 56.26 357.89 56.75C359.35 57.25 361.69 57.84 363.07 58.08C370.86 59.4 381.59 82.95 385.57 107.46C385.99 110.03 387.04 116.03 387.91 120.8C393.05 149 392.14 188.82 386.23 194.16C385.42 194.9 384.15 196.7 383.4 198.16C377.79 209.21 367.49 219.32 355.9 225.18C351.18 227.56 344.44 231.13 340.93 233.1C325.9 241.53 314.28 246.65 302.86 249.88C300.48 250.55 295.98 251.87 292.86 252.8C289.74 253.73 286.58 254.5 285.84 254.51C285.1 254.52 280.91 255.42 276.52 256.52C272.13 257.62 266.88 258.53 264.86 258.53C262.83 258.53 258.63 259.15 255.51 259.9C252.39 260.65 246.39 261.71 242.17 262.25C237.95 262.79 232.1 263.66 229.16 264.18C226.23 264.71 218.65 265.6 212.32 266.16C205.99 266.73 198.22 267.64 195.05 268.19C187.03 269.59 155.29 269.6 147.28 268.2C144.15 267.66 138.49 266.77 134.69 266.24C130.89 265.7 126.47 264.8 124.87 264.23C121.52 263.04 113.45 262.81 113.45 263.9C113.45 266.24 132.47 277.01 148.13 283.55C150.51 284.54 153.66 285.9 155.13 286.57C157.54 287.66 167.12 290.72 179.81 294.44C182.38 295.19 186.49 296.12 188.96 296.52C191.43 296.91 194.14 297.49 195 297.82C195.85 298.14 198.63 298.61 201.18 298.86C203.73 299.11 208.07 299.75 210.82 300.28C221.15 302.28 264.49 302.47 272.85 300.55C274.5 300.17 279.45 299.43 283.85 298.91C292.53 297.88 308.32 294.71 315.84 292.48C318.42 291.72 321.75 290.84 323.23 290.53C326.12 289.92 341.16 284.86 351.55 281C364.17 276.31 384.64 266.58 396.57 259.59C400.6 257.23 405.1 254.6 406.55 253.74C410.22 251.59 429.97 238.3 433.41 235.67C452.42 221.16 454.39 219.23 460.19 209.5C461.72 206.94 463.91 203.38 465.05 201.6C474.3 187.2 481.26 142.98 477.04 125.46C474.77 116.04 473.37 111.85 469.97 104.33C467.87 99.68 465.29 94.28 464.23 92.33C463.17 90.38 461.36 87 460.21 84.83C458.1 80.83 455.16 76.08 453.93 74.69C453.56 74.27 452.68 73.22 451.97 72.35C444.23 62.92 441.4 59.99 437.57 57.49C435.93 56.42 432.94 54.11 430.92 52.36C417.15 40.43 414.2 38.25 402.91 31.78C398.33 29.16 386.41 24.52 379.56 22.7C377.18 22.06 374.48 21.19 373.56 20.75C372.64 20.32 368.89 19.28 365.22 18.46C361.55 17.63 356.6 16.41 354.22 15.74C351.83 15.07 348.08 14.33 345.88 14.09C343.68 13.85 340.38 13.25 338.54 12.76C336.71 12.27 331.76 11.52 327.54 11.11C323.32 10.7 317.62 10.06 314.87 9.7C305.06 8.4 274.2 8.07 258.84 9.1M248.08 61.36C244.54 61.55 239.74 62.29 237.41 62.99C235.07 63.7 230.31 64.79 226.83 65.41C223.34 66.03 218.79 67.12 216.71 67.82C214.62 68.52 210.72 69.29 208.03 69.52C205.35 69.76 200.9 70.55 198.15 71.28C194.29 72.31 190.26 72.67 180.47 72.9C170.3 73.15 167.05 73.46 163.96 74.49C161.85 75.2 158.8 75.78 157.18 75.78C155.55 75.78 151.43 76.54 148.01 77.48C144.59 78.41 139.21 79.44 136.05 79.75C132.8 80.08 128.99 80.93 127.25 81.72C125.57 82.49 123.95 83.12 123.65 83.14C121.56 83.22 111.55 89.26 107.81 92.7C106.37 94.03 104.94 95.12 104.64 95.12C104.35 95.12 104.11 95.5 104.11 95.96C104.11 96.43 102.19 98.3 99.84 100.13C97.3 102.11 95.04 104.54 94.26 106.12C93.53 107.59 91.95 110.83 90.75 113.31C89.55 115.8 88.32 117.99 88 118.19C87.69 118.38 87.43 119.53 87.43 120.75C87.43 121.96 86.86 123.69 86.15 124.58C85.29 125.68 84.73 127.82 84.42 131.17C84.17 133.9 83.5 137.94 82.92 140.14C81.65 145.02 81.6 158.02 82.83 164.22C83.49 167.54 83.51 169.21 82.91 171.66C81.77 176.29 84.01 201.4 85.8 204.13C86.31 204.91 86.93 207.79 87.17 210.53C87.42 213.26 87.85 215.81 88.13 216.17C89.1 217.43 92.77 224.81 92.77 225.5C92.77 225.88 93.33 227.24 94.01 228.52C94.69 229.8 95.47 231.56 95.75 232.42C96.02 233.29 97.94 235.75 100.01 237.88C105.58 243.62 106.78 245.16 106.78 246.61C106.78 248.37 112.62 251.03 118.97 252.17C121.62 252.64 126.48 253.79 129.79 254.72C133.09 255.66 138.19 256.62 141.12 256.86C144.06 257.1 148.26 257.77 150.46 258.37C156.34 259.95 183.51 259.83 191.48 258.19C195.64 257.34 200.26 257.03 208.82 257.04C218.32 257.06 221.18 256.83 224.16 255.85C226.18 255.19 231.43 254.15 235.83 253.55C240.23 252.95 245.04 252.28 246.5 252.08C247.97 251.87 251.06 251.11 253.37 250.4C255.68 249.69 260.63 248.87 264.38 248.56C268.12 248.26 272.83 247.53 274.85 246.94C276.87 246.35 280.78 245.86 283.55 245.86C286.32 245.86 288.87 245.59 289.22 245.26C289.57 244.94 292.56 243.72 295.86 242.55C301.07 240.71 306.51 238.56 311.2 236.5C311.93 236.18 314.63 235.12 317.2 234.15C319.77 233.18 323.29 231.66 325.03 230.78C326.76 229.9 328.64 229.18 329.19 229.18C329.75 229.18 330.21 228.91 330.21 228.58C330.21 228.25 333.28 226.42 337.04 224.49C340.8 222.57 344.58 220.45 345.45 219.77C346.31 219.1 348.04 218.35 349.29 218.12C350.54 217.88 351.73 217.42 351.94 217.08C352.15 216.75 354.25 215.6 356.61 214.53C361.53 212.3 361.38 212.43 368.73 203.89C376.91 194.38 377.49 193.41 377.96 188.46C378.19 186.1 378.91 182.96 379.56 181.49C382.06 175.91 381.83 131.94 379.28 125.39C378.72 123.96 377.82 119.95 377.27 116.46C376.72 112.98 375.64 107.73 374.86 104.79C374.09 101.86 372.91 97.35 372.24 94.79C370.08 86.5 364.24 71.12 362.47 69.06C361.98 68.49 361.23 66.99 360.8 65.73C358.98 60.3 364.09 60.76 306.07 60.89C277.71 60.95 251.61 61.16 248.08 61.36M364.89 63.55C364.89 64.53 365.31 65.81 365.81 66.39C367.15 67.91 370.89 75.14 370.89 76.2C370.89 76.7 371.18 77.11 371.53 77.11C371.88 77.11 372.53 78.39 372.98 79.95C374.22 84.32 375.1 84.65 374.73 80.61C374.56 78.68 373.96 76.58 373.41 75.94C372.85 75.3 372.2 73.68 371.96 72.34C371.72 71 371.12 69.75 370.63 69.56C370.15 69.38 369.55 68.25 369.32 67.07C368.57 63.34 364.89 60.42 364.89 63.55M151.8 70.44C151.11 71.55 156.61 71.5 157.76 70.38C158.15 70.01 157.19 69.78 155.3 69.78C153.6 69.78 152.02 70.08 151.8 70.44M304.2 74.25C315.23 76.16 323.73 81.38 327.86 88.78C328.89 90.62 330.11 92.57 330.58 93.12C332.07 94.87 334.34 105.15 334.03 108.78C333.22 118.13 325.61 130.13 316.98 135.65C316 136.27 314.79 137.18 314.29 137.66C309.02 142.7 288.39 144.3 280 140.31C277.88 139.3 275.9 138.47 275.6 138.47C274.96 138.47 270.07 133.74 266.94 130.09C261.78 124.06 260 116.55 260.65 103.5C261.55 85.24 283.32 70.62 304.2 74.25M131.57 75.77C130.75 76.27 131.5 76.4 134.4 76.28C137.09 76.16 138.45 75.81 138.66 75.17C139.02 74.1 133.59 74.56 131.57 75.77M122.22 77.84C118.34 79.2 119.99 80.89 124.1 79.78C126.93 79.02 127.57 78.08 125.62 77.57C124.98 77.4 124.42 77.23 124.38 77.19C124.35 77.15 123.37 77.44 122.22 77.84M286.57 80.2C260.66 89.03 258.17 125.98 282.82 135.88C288.47 138.15 298.9 138.65 302.42 136.81C303.46 136.27 305.53 135.5 307.02 135.1C313.14 133.45 323.12 123.57 325.03 117.28C329.25 103.34 324.82 90.5 313.87 84.96C312.4 84.22 310.42 83.06 309.46 82.38C305.24 79.41 292.47 78.19 286.57 80.2M376.85 90.01C377.7 90.85 377.82 88.38 377.05 85.78C376.62 84.3 376.54 84.4 376.35 86.7C376.23 88.13 376.46 89.61 376.85 90.01M103.11 89.78C102.88 90.15 103.31 90.45 104.07 90.45C104.82 90.45 105.44 90.15 105.44 89.78C105.44 89.42 105.01 89.12 104.48 89.12C103.95 89.12 103.33 89.42 103.11 89.78M160.91 93.19C163.48 93.47 165.79 94.28 168.17 95.74C170.09 96.93 172.37 98.16 173.23 98.49C174.09 98.81 175.62 100.34 176.63 101.88C177.64 103.42 179.78 106.05 181.37 107.72C190.59 117.4 188.24 133.79 175.65 147.56C173.12 150.33 172.18 150.93 165.47 154.07C151.47 160.6 140.09 160.2 129.38 152.8C118.61 145.36 113.49 123.91 120.54 115.74C121.04 115.16 121.45 114.5 121.45 114.26C121.45 114.03 122.32 112.47 123.39 110.78C125.28 107.8 126.52 106.53 130.84 103.12C132.01 102.21 133.6 100.82 134.37 100.04C140.48 93.9 148.42 91.85 160.91 93.19M379.48 101.12L380.08 104.12C380.13 101.49 380.15 100.03 380.16 99.73C380.2 97.32 380 95.11 379.73 94.83C378.95 94.05 378.8 97.79 379.48 101.12M142.36 101.17C134.99 104.69 130.85 108.9 126.99 116.85C123.33 124.37 122.6 129.25 124.6 132.64C125.33 133.88 126.45 136.45 127.08 138.36C130.43 148.43 145.65 155.34 155.8 151.38C157.26 150.81 160.12 149.76 162.13 149.05C169.72 146.39 170.47 145.88 173.5 141.27C180.51 130.61 182.23 117.83 177.49 111.61C176.03 109.69 174.01 107.02 172.99 105.68C171.97 104.34 170.69 103.07 170.14 102.86C169.59 102.66 167.04 101.58 164.47 100.46C158.15 97.72 148.98 98.01 142.36 101.17M380.94 106.62C380.98 109.55 382.64 119.32 382.89 118.13C383.16 116.87 382.82 106.12 382.48 104.96C381.84 102.77 380.9 103.79 380.94 106.62M384.51 131.16C384.86 139.93 385.28 143.86 386.06 145.67C386.91 147.6 387.24 151.52 387.57 163.48C387.6 164.51 387.74 169.62 387.99 178.82C388.06 166.94 388.1 160.34 388.11 159.02C388.18 147.77 387.96 138.5 387.6 137.55C387.25 136.64 386.59 132.11 386.13 127.51C384.88 114.94 383.95 117.04 384.51 131.16M495.24 145.36C494.81 146.8 494.82 146.8 495.93 145.48C496.54 144.74 496.84 144.54 496.6 145.02C496.32 145.55 496.5 145.85 497.05 145.77C499.99 145.37 503.06 148.05 502.22 150.3C501.91 151.12 501.88 151.76 502.14 151.72C503.78 151.48 504.59 151.85 503.68 152.43C503.16 152.75 502.37 152.88 501.93 152.71C501.39 152.51 501.19 153.02 501.33 154.25C501.44 155.26 501.26 156.55 500.92 157.12C500.44 157.94 500.32 157.96 500.3 157.2C500.29 156.68 500.09 156.45 499.86 156.68C499.63 156.91 498.86 156.36 498.15 155.46C497.1 154.13 496.61 153.95 495.57 154.5C494.55 155.05 494.28 154.97 494.28 154.17C494.28 153.25 493.5 152.85 492.11 153.07C491.84 153.11 491.6 152.92 491.59 152.64C491.59 152.37 491.41 150.61 491.2 148.74C490.84 145.59 490.93 145.29 492.38 144.83C495.54 143.83 495.68 143.86 495.24 145.36M385.62 181.16C384.58 181.16 382.57 188.49 383.3 189.65C384.48 191.52 385.34 191.31 386.82 188.82C388.59 185.81 388.84 180.11 387.18 180.75C386.6 180.98 385.9 181.16 385.62 181.16M191.89 203.44C195.79 205.25 201.48 210.38 201.48 212.08C201.48 212.71 201.94 213.92 202.51 214.78C206.43 220.76 201.62 233.02 194.3 235.69C188.93 237.66 186.94 238 184.73 237.32C183.49 236.94 181.31 236.43 179.89 236.19C172.44 234.94 164.13 225.33 164.13 217.97C164.13 206.07 179.87 197.84 191.89 203.44M176.54 206.1C161.79 212.26 167.2 231.85 184.12 233.62C196.31 234.89 203.07 225.51 198.39 213.84C195.69 207.13 183.99 202.98 176.54 206.1M350.55 223.18C350.31 223.56 350.97 223.84 352.14 223.84C353.24 223.84 354.32 223.54 354.55 223.18C354.79 222.79 354.13 222.51 352.96 222.51C351.86 222.51 350.78 222.81 350.55 223.18M321.37 238.17C318.15 239.67 318.11 240.82 321.29 240.3C322.62 240.08 323.78 239.82 323.87 239.71C324.41 239.08 324.92 236.4 324.44 236.68C324.13 236.86 322.75 237.53 321.37 238.17M486.28 244.98C519.74 250.52 526.36 302.53 496.83 327.94C489.68 334.1 487.42 333.53 486.7 325.4C485.94 316.84 477.93 298.96 471.13 290.63C469.14 288.19 466.37 284.7 464.98 282.87C460.84 277.44 454.19 270.93 450.17 268.37C444.16 264.55 444.34 263.71 452.48 257.13C464 247.83 476.45 243.35 486.28 244.98M474.74 247.47C467.13 248.93 460.28 252.71 450.78 260.69C447.88 263.13 448.1 265.03 451.59 267.68C458.88 273.21 469.94 285.39 476.48 295.1C481.76 302.95 487.02 315.7 488.92 325.27C489.86 330.06 491.1 330.35 495.44 326.79C507.01 317.31 513.62 302.05 513.62 284.82C513.62 258.63 497.47 243.12 474.74 247.47M282.85 250.47C281.22 250.95 281.24 250.97 283.4 251.47C286.22 252.12 290.87 251.36 289.48 250.48C288.37 249.78 285.25 249.77 282.85 250.47M265.51 253.86C265.51 254.71 271.53 254.71 272.85 253.86C273.55 253.4 272.62 253.21 269.68 253.2C267.34 253.19 265.51 253.48 265.51 253.86M237.95 258.46C233.6 259.51 234.36 259.86 241.02 259.86C247.56 259.86 249.49 259.13 247.26 257.51C246.16 256.7 244.49 256.87 237.95 258.46M117.16 259.27C117.36 259.59 118.88 259.86 120.53 259.86C123.9 259.86 123.93 258.87 120.58 257.97C118.41 257.38 116.45 258.12 117.16 259.27M203.15 261.75C199.87 262.64 203.13 263.87 208.61 263.8C214.44 263.73 225.47 262.21 224.16 261.66C221.48 260.53 207.37 260.59 203.15 261.75M129.84 261.78C129.36 262.54 132.72 263.19 137.17 263.19C140.66 263.19 142.58 262.25 140.3 261.65C138.14 261.09 130.2 261.18 129.84 261.78M163.47 265.17C170.62 265.37 180.07 265.36 184.48 265.15C189.03 264.94 183.41 264.78 171.47 264.79C153.53 264.8 152.36 264.86 163.47 265.17M451.19 276.93C455.56 281.49 460.74 287.4 462.7 290.05C464.67 292.7 466.5 295.17 466.77 295.54C467.05 295.91 468.47 297.71 469.93 299.54C475.62 306.65 477.13 310.14 481.35 325.89C481.89 327.91 482.84 330.53 483.45 331.72C485.94 336.51 479.15 339.82 465.27 340.58C455.45 341.12 450.2 342.22 444.47 344.93C437.79 348.08 437 347.63 431.57 337.56C425.47 326.24 417.45 315.05 410.78 308.53C406.37 304.22 405.25 301.97 406.35 299.57C407.23 297.64 411.85 296.59 414.12 297.81C423.9 303.05 441.31 287.69 440.01 274.97C439.08 265.91 440.98 266.25 451.19 276.93M442.34 277.73C439.49 292.22 423.63 304.51 413.35 300.21C410.47 299.01 410.24 299 408.73 300.14C407.03 301.44 407.86 303.04 412.95 308.33C415.35 310.83 418.2 314.08 419.28 315.55C420.36 317.02 421.4 318.37 421.6 318.55C422.59 319.47 431 332.84 433.92 338.16C437.89 345.37 438.24 345.5 445.48 342.66C452.44 339.92 456.44 339.16 466.64 338.64C477.63 338.08 481.44 335.99 480.65 330.95C478.99 320.46 473.14 306.33 467.08 298.21C465.16 295.64 462.37 291.89 460.88 289.87C449.81 274.95 443.67 270.93 442.34 277.73M369.99 294.34C373.46 295 398.66 318.58 405.48 327.55C420.9 347.84 425.62 360.11 420.6 366.87C418.57 369.62 414.81 376.71 412.86 381.48C410.85 386.43 409.32 387.61 404.26 388.14C399.53 388.64 398.17 389.28 389.24 395.24C374.2 405.28 372.94 405.94 358.89 410.9C355.03 412.26 350.53 413.94 348.88 414.64C347.23 415.35 344.38 416.24 342.55 416.63C340.71 417.02 336.75 418.21 333.75 419.27C330.75 420.33 325.88 421.65 322.94 422.21C319.99 422.77 316.44 423.73 315.06 424.35C313.47 425.05 309.56 425.66 304.53 425.98C300.13 426.26 293.07 426.82 288.86 427.21C284.64 427.61 273.98 428.39 265.18 428.93C256.37 429.48 247.82 430.26 246.17 430.65C244.2 431.13 239.03 431.22 231.16 430.92C221.33 430.55 218.33 430.67 214.61 431.54C203.34 434.18 203.15 432.2 212.38 408.47C213.28 406.15 214.66 402.3 215.43 399.92C216.21 397.54 217.93 392.28 219.24 388.25C223.93 373.89 225.91 361.6 227.8 335.28C228.83 320.99 230.47 318.47 237.63 320.21C240.41 320.89 270.31 319.3 280.52 317.93C307.91 314.26 343.51 304.76 363.2 295.86C366.53 294.36 368.15 294 369.99 294.34M358.89 299.31C317.05 315.12 283.91 321.56 241.7 322.1C229.49 322.25 230.37 320.84 228.83 342.89C227.71 358.99 224.29 379.82 221.82 385.58C221.34 386.68 219.3 392.53 217.29 398.59C215.27 404.64 212.09 413.89 210.22 419.15C205.7 431.86 206.02 432.9 213.84 430.83C217.08 429.97 220.17 429.84 230.49 430.14C241.13 430.45 244.11 430.31 249.16 429.29C252.99 428.51 261.35 427.79 272.18 427.29C281.54 426.86 292.43 426.09 296.38 425.57C300.34 425.05 304.84 424.8 306.39 425.01C308.48 425.29 310.36 424.95 313.73 423.68C316.22 422.74 319.82 421.77 321.73 421.52C323.64 421.28 328.66 419.95 332.87 418.58C337.09 417.21 341.88 415.89 343.51 415.65C345.15 415.4 346.8 414.93 347.2 414.61C347.92 414.01 358.18 410.14 364.89 407.94C368.18 406.86 371.32 405.52 374.23 403.97C376.58 402.71 386.96 395.98 391.57 392.73C395.08 390.26 398.26 388.69 402.24 387.46C409.51 385.22 409.14 385.58 413.38 376.59C415.37 372.37 417.4 368.46 417.89 367.91C423.46 361.61 421.87 355.11 410.4 337.28C404.41 327.96 395.81 317.93 389.21 312.55C383.79 308.14 379.84 304.7 374.91 300.12C369.59 295.17 369.83 295.18 358.89 299.31M173.8 341.33C177.11 341.66 180.86 341.94 182.14 341.97C184.16 342.02 193.51 343.04 203.43 344.3C208.62 344.96 210.43 347.52 209.86 353.43C208.53 367.34 205.09 380.84 198.18 399.25C193.61 411.44 187.1 432.48 186.41 437.27C185.61 442.89 182.06 445.27 176.02 444.25C174.57 444.01 171.5 444.16 169.2 444.59C159.8 446.37 143.73 441.02 135.31 433.32C115.24 414.98 111.14 376 127.09 355.27C131.34 349.75 138.86 345.29 147.84 342.97C151.14 342.11 166.24 340.34 167.47 340.66C167.65 340.71 170.5 341.01 173.8 341.33M152.13 343.85C141.96 346.11 134.21 349.79 130.04 354.33C128.07 356.48 122.78 365.11 122.78 366.2C122.78 366.59 122.3 367.81 121.73 368.91C113.8 384.06 122.49 422.01 136.32 432.6C144.52 438.88 156.6 443.45 164.2 443.14C170.61 442.87 171.07 442.14 168.33 436.5C159.07 417.45 163.83 366.08 176.47 348.48C178.89 345.12 178.79 344.64 175.44 343.3C172.52 342.13 158.33 342.47 152.13 343.85M185.4 344.57C183.02 345.23 182.99 345.29 182.63 349.4C182.31 353.15 179.89 361.73 176.29 371.91C172.11 383.73 171.04 408.92 174.05 424.79C174.87 429.11 175.48 434.45 175.4 436.66C175.04 446.46 184.01 444.92 185.44 434.94C186.03 430.86 194.35 403.88 196.13 400.25C197.46 397.58 200.97 387.48 201.93 383.58C202.48 381.38 203.52 377.84 204.25 375.71C205.81 371.17 208.13 357.09 208.14 352.11C208.16 346.69 207.62 346.38 195.81 344.95C191.78 344.46 188.33 344.02 188.14 343.98C187.96 343.94 186.73 344.2 185.4 344.57M379.37 346.1C382.2 348.04 383.45 349.75 387.2 356.86C388.92 360.14 390.91 363.55 391.61 364.44C395.71 369.66 394.65 373.09 386.41 381.21C372.06 395.37 363.83 395.58 355.11 382.01C353.78 379.94 351.61 376.62 350.29 374.65C345.25 367.12 345.26 367.19 348.93 360.89C352.68 354.46 353.71 353.51 360.55 350.1C372.42 344.2 375.6 343.53 379.37 346.1M363.88 350.48C355.88 354.5 353.94 356.2 350.7 362.01C347.72 367.35 347.71 367.49 350.12 370.24C351.17 371.43 353.28 374.67 354.8 377.43C360.81 388.31 369.08 392.65 373.69 387.32C375.87 384.81 386.21 376.58 387.19 376.58C392.46 376.58 393.22 369.2 388.53 363.48C387.27 361.94 386.23 360.42 386.23 360.1C386.23 358.93 379.48 348.58 378.04 347.54C375.68 345.82 371.36 346.72 363.88 350.48M175.4 353.38C174.34 355.48 173.47 357.59 173.47 358.07C173.47 358.56 172.86 360.14 172.12 361.59C171.37 363.05 170.05 366.64 169.18 369.57C161.99 393.8 164.12 439.65 172.38 438.47C174.24 438.21 174.34 431.87 172.61 422.6C168.76 401.87 171.6 375.51 179.75 356.42C180.81 353.93 181.19 348.5 180.36 347.67C179.59 346.9 177.4 349.42 175.4 353.38M375.98 353.22C383.12 356.11 386.6 375.45 380.35 377.56C379.73 377.77 377.89 379.16 376.27 380.66C372.23 384.36 366.63 383.56 362.92 378.76C360.6 375.75 356.94 370.36 356.1 368.72C354.41 365.42 358.66 359.97 366.31 355.64C371.75 352.56 373.34 352.16 375.98 353.22M367.61 356.96C359.54 361.37 358.38 363.67 360.86 370.36C364.84 381.08 368.43 382.31 377.06 375.88C382.9 371.52 383.21 369.03 378.95 360.9C375.25 353.85 374.07 353.44 367.61 356.96M470.6 358.19C479.03 359.57 489.51 367.82 484.11 368.83C482.73 369.09 478.66 369.69 467.79 371.25C465.51 371.58 462.66 372.36 461.45 372.99C459.77 373.87 457.61 374.12 452.11 374.09C445.45 374.05 444.77 374.17 442.11 375.86C435.21 380.23 433.55 379.66 436.35 373.88C439.78 366.77 450.89 358.98 458.67 358.22C460.83 358.01 463.35 357.75 464.27 357.63C465.18 357.52 468.03 357.77 470.6 358.19M472.27 362.81C473.99 363.72 474.94 363.62 474.94 362.53C474.94 362.19 473.96 361.91 472.77 361.91C472.62 361.91 471.9 361.92 470.6 361.92L472.27 362.81M519.34 366.63C519.34 367.52 518.87 367.91 517.77 367.91C516.1 367.91 516.3 366.97 518.18 365.96C519.09 365.48 519.34 365.62 519.34 366.63M319.56 368.15C328.81 370.14 335.05 382.37 332.15 392.82C328.46 406.13 304.15 409.72 296.21 398.14C285.11 381.94 299.26 363.77 319.56 368.15M507.62 370.54C507.62 371.62 508.67 374.9 509.95 377.82C511.24 380.74 512.29 383.56 512.29 384.08C512.29 385.23 515.95 392.78 517.87 395.58C518.87 397.05 518.94 397.35 518.12 396.69C516.51 395.4 511.88 386.72 510.96 383.23C510.52 381.59 509.57 379.27 508.84 378.09C507.59 376.04 506.29 368.57 507.19 368.57C507.43 368.57 507.62 369.46 507.62 370.54M304.2 370.87C286.8 379.94 292.41 403.8 311.85 403.48C329.29 403.18 336.63 385.92 324.67 373.33C320.56 369 310.18 367.75 304.2 370.87M493.62 375.74C498.24 380.98 501.44 387.79 499.77 388.82C499.44 389.02 497.74 388.75 495.98 388.22C492.97 387.32 492.52 387.36 487.98 388.92C485.34 389.84 482.38 390.58 481.41 390.58C480.45 390.58 478.07 391.16 476.13 391.86C474.12 392.59 469.73 393.33 465.93 393.59C462.26 393.84 457.46 394.46 455.26 394.97C453.06 395.48 449.24 395.9 446.78 395.91C442.01 395.92 434.6 397.95 430.06 400.51C424 403.91 422.66 399.77 427.05 391.19C429.74 385.94 431.27 385.29 435.34 387.67C438.04 389.25 438.72 389.37 442.13 388.9C444.22 388.6 449.73 388.28 454.38 388.18C462.47 388.01 463.2 387.87 471.39 385C476.09 383.34 481.17 381.68 482.67 381.29C485.82 380.47 487.31 379.06 487.98 376.24C489.06 371.73 490.02 371.65 493.62 375.74M254.62 376.59L262.74 377.08C264.95 378.99 266.18 380.05 266.43 380.26C272.7 385.68 274.41 397.02 270.44 406.93C267.6 414.03 267.89 413.93 250.25 413.92C226.93 413.92 226.24 413.39 229.53 397.92C230.58 393.01 230.79 390.31 230.46 385.91C229.73 376 231.72 375.23 254.62 376.59M234.41 379.3C229.62 382.26 232.42 387.71 237.54 385.4C239.07 384.71 242.05 384.34 246.5 384.28C251.65 384.23 253.71 383.92 255.51 382.96C255.66 382.87 256.44 382.45 257.84 381.7C255.24 380.96 253.8 380.55 253.51 380.46C249.36 379.28 242.67 378.17 238.58 378C237.52 377.95 235.65 378.54 234.41 379.3M316.57 380.9C321.86 386.51 318.81 393.24 310.97 393.25C305.82 393.25 302.03 387.96 304.23 383.85C306.9 378.86 313.22 377.35 316.57 380.9M308.38 382.56C304.33 385.03 304.8 390.14 309.16 390.95C315.87 392.21 319.96 387.39 315.9 383.01C313.92 380.88 311.39 380.73 308.38 382.56M238.24 388.28C236.46 389.98 235.6 393.81 235.54 400.29C235.48 406.74 235.63 406.84 247.31 407.29C252.77 407.5 257.6 407.9 258.04 408.18C259.25 408.92 263.45 407.17 263.9 405.74C264.46 403.99 264.47 391.89 263.92 390.15C262.68 386.25 241.93 384.73 238.24 388.28M267.98 394.08C268.48 403.94 268.85 404.05 268.85 394.36C268.85 390.01 268.57 386.58 268.23 386.58C267.86 386.58 267.76 389.63 267.98 394.08M503.62 393.69C504.55 393.95 508.97 402.39 509.94 405.76C511.02 409.5 509.26 410.68 505.36 408.83C503.51 407.94 502.57 407.87 500.51 408.44C499.1 408.83 494.05 410.24 489.28 411.58C484.51 412.92 479.41 414.32 477.94 414.7C476.45 415.08 466.26 415.43 454.93 415.49C435.51 415.59 434.47 415.66 431.91 417.02C422.16 422.25 417.82 418.68 422.44 409.26C424.25 405.56 425.47 405.29 429.73 407.61C432.88 409.32 433.38 409.39 438.83 408.97C442 408.72 450.89 408.52 458.6 408.52C473.73 408.52 479.69 407.46 486.61 403.54C488.08 402.7 491.02 401.71 493.15 401.32C498.03 400.44 497.98 400.47 499.97 396.54C500.89 394.73 501.86 393.29 502.13 393.33C502.4 393.37 503.07 393.53 503.62 393.69M405.33 402.92C405.54 403.48 405.56 404.9 405.37 406.09C402.29 425.09 401.53 437.94 402.28 457.95C402.82 472.34 403.61 481.52 404.89 487.96C408.55 506.49 408.84 505.22 398.68 515.12C382.73 530.65 356.25 548.36 342.55 552.66C341.08 553.12 339.58 553.71 339.21 553.98C338.04 554.82 324.68 559.14 320.74 559.96C316.11 560.91 314.25 560.15 310.73 555.86C300.57 543.52 280.85 527.77 258.84 514.39C243.15 504.86 224.98 495.21 219.11 493.28C213.02 491.29 206.99 488.07 205.55 486.05C201.28 480.05 199.15 449.17 202.53 442.25C204.11 439 205.15 438.8 212.61 440.28C216.57 441.06 221.45 441.38 229.04 441.35C234.98 441.32 246.87 441.47 255.47 441.68C265.34 441.93 271.97 441.82 273.48 441.38C282.07 438.91 287.7 437.92 293.12 437.93C296.39 437.93 302.99 437.5 307.8 436.97C312.6 436.43 319.63 435.68 323.42 435.3C327.21 434.91 330.95 434.25 331.73 433.83C332.51 433.42 335.4 432.51 338.16 431.82C340.91 431.13 344.98 429.7 347.19 428.63C351.82 426.41 357.92 424.4 364.42 422.97C367.54 422.28 370.15 421.13 372.76 419.31C374.85 417.84 377.76 416.22 379.23 415.7C384.5 413.83 397.07 407.23 400.38 404.6C404.07 401.66 404.76 401.43 405.33 402.92M391.57 410.93C388.82 412.32 384.16 414.47 381.23 415.72C378.29 416.98 374.78 418.88 373.43 419.97C370.48 422.32 368.95 422.94 362.67 424.33C356.93 425.59 350.68 427.74 347.73 429.46C343.93 431.67 331.39 435.25 324.87 435.98C321.39 436.37 315.08 437.12 310.86 437.65C306.65 438.19 299.7 438.62 295.43 438.61C289.61 438.61 286.6 438.93 283.42 439.9C272.98 443.1 269.81 443.49 258.18 442.98C252.12 442.72 239.82 442.38 230.83 442.22C221.84 442.07 212.95 441.6 211.06 441.18C203.63 439.54 202.53 441.66 202.51 457.61C202.48 479.2 204.74 485.71 213.5 489.28C228.94 495.55 246.32 504.4 254.84 510.33C256.5 511.48 258.16 512.54 258.54 512.69C259.27 512.98 268.31 518.63 274.49 522.64C286.52 530.46 300.43 542.39 312.08 554.86C314.46 557.41 316.14 558.66 317.2 558.66C319.56 558.66 326.59 556.88 331.87 554.94C334.44 554 338.14 552.66 340.08 551.96C346.6 549.63 366.25 539.34 369.22 536.7C369.96 536.05 372.23 534.58 374.28 533.43C376.32 532.28 378.81 530.59 379.81 529.67C380.8 528.74 383.64 526.38 386.11 524.41C403.41 510.61 406.8 505.36 404.6 495.84C400.27 477.13 399.06 438.47 402.1 415.79C403.59 404.67 403.33 403.78 399.37 406.49C397.83 407.55 394.32 409.55 391.57 410.93M232.16 408.92C232.16 409.57 232.81 409.92 234 409.91C234.12 409.91 234.73 409.91 235.83 409.9C234.83 409.35 234.28 409.04 234.16 408.98C233.25 408.47 232.42 408.03 232.33 407.99C232.24 407.95 232.16 408.37 232.16 408.92M512.09 414.09C512.84 414.92 513.67 416.78 513.93 418.24C514.19 419.69 514.81 421.67 515.31 422.64C518.36 428.54 517.05 433.33 512.82 431.71C508.61 430.1 501.24 430.74 494.6 433.28C493.51 433.7 488.86 434.27 484.27 434.55C477.8 434.95 475.32 435.38 473.16 436.49C470.53 437.83 469.13 437.93 448.99 438.25C430.18 438.56 427.21 438.75 424.29 439.86C419.59 441.64 417.52 439.14 418.84 433.25C419.84 428.79 420.77 428.22 424.8 429.56C430.56 431.47 446.35 431.66 450.07 429.86C452.39 428.74 453.81 428.51 456.8 428.78C462.17 429.25 475.88 428.14 480.21 426.88C482.22 426.3 485.52 425.55 487.56 425.22C489.59 424.89 493.06 423.87 495.27 422.96C497.47 422.05 501.04 420.81 503.19 420.21C506.89 419.18 507.17 418.95 508.52 415.87C510.17 412.13 510.26 412.09 512.09 414.09M519.66 442.44C520.09 444.49 520.48 448.14 520.53 450.56C520.53 450.85 520.57 452.31 520.62 454.94C519.42 454.78 518.76 454.68 518.62 454.66C512.2 453.77 496.33 454.58 492.51 456.01C489.16 457.26 486.91 457.5 476.6 457.73C428.72 458.76 425.85 459.02 422.89 462.65C422.77 462.79 422.2 463.48 421.18 464.74C420.67 463.62 420.39 463 420.33 462.87C419.33 460.68 418.2 451.53 418.74 450C419.83 446.91 420.62 446.69 426.11 447.98C431.9 449.34 462.21 451.12 465.37 450.29C466.41 450.01 471.32 449.55 476.27 449.25C484.84 448.75 493.75 447.21 495.25 445.97C495.63 445.66 497.45 445.18 499.28 444.91C502.75 444.4 511.45 441.76 513.79 440.51C518.12 438.2 518.83 438.43 519.66 442.44M521.9 463.45C522.78 469.19 523.01 478.12 522.32 480.21C522.27 480.36 522.02 481.11 521.58 482.45C520.11 481.71 519.29 481.29 519.12 481.21C516.28 479.75 514.77 479.64 512.74 480.75C510.86 481.78 494.44 484.09 480.94 485.23C476 485.65 472.2 486.35 470.27 487.2C466.61 488.8 455.91 489.25 442.11 488.37C430.31 487.61 425.59 489.72 427.55 494.88C429.01 498.73 430.95 499.09 452.34 499.54C485.58 500.24 505.21 497.8 516.24 491.57C520.58 489.12 521.37 488.87 521.88 489.77C522.76 491.34 521.79 499.68 520.12 504.85C520.03 505.16 519.54 506.67 518.66 509.41C516.85 509.11 515.84 508.94 515.64 508.91C513.98 508.64 509.17 508.32 504.95 508.2C500.73 508.09 496.83 507.95 496.28 507.9C493.73 507.66 478.68 509.47 471.38 510.9C463.09 512.51 440.51 514.3 437.75 513.55C436.92 513.33 435.35 513.51 434.26 513.97C429.11 516.1 425.04 508.42 425.42 497.3C425.45 496.38 425.05 495.16 424.53 494.58C422.26 492.05 419.57 473.92 420.63 468.26C420.66 468.11 420.8 467.34 421.06 465.96C421.83 466.93 422.26 467.48 422.34 467.58C424.2 469.95 428.04 470.49 435.59 469.48C443.7 468.39 478.68 468.22 483.17 469.25C487.69 470.28 508.31 467.62 511.38 465.62C512.22 465.07 513.44 464.61 514.1 464.61C514.75 464.61 516.49 463.87 517.96 462.96C521.38 460.85 521.5 460.87 521.9 463.45M167.14 496.33C167.87 496.43 171.91 496.89 176.11 497.34C181.65 497.94 184.86 498.67 187.78 499.98C190 500.97 193.41 501.96 195.36 502.18C197.31 502.4 199.86 503.16 201.03 503.87C202.2 504.58 204.2 505.37 205.49 505.64C207.71 506.1 212.69 508.61 214.82 510.34C215.37 510.78 217.62 511.65 219.83 512.26C222.03 512.88 227.47 515.46 231.93 518.01C236.39 520.56 240.32 522.64 240.66 522.64C241.01 522.64 241.83 523.23 242.49 523.96C243.14 524.68 244.27 525.46 245 525.69C246.23 526.09 246.79 526.48 250.39 529.53C251.18 530.19 252.63 530.9 253.62 531.1C254.61 531.3 255.57 531.84 255.74 532.3C255.92 532.76 257.41 533.79 259.05 534.58C265.38 537.65 266.89 540.04 264.89 543.85C264.18 545.21 262.97 548.42 262.2 550.99C261.43 553.55 260.24 557.16 259.55 558.99C258.87 560.82 257.64 564.58 256.83 567.33C254.83 574.09 252.59 579.91 249.45 586.51C248.01 589.55 246.84 592.16 246.84 592.33C246.84 592.81 243.49 597.43 238.55 603.76C234.23 609.29 231.18 612.78 225.49 618.7C224.21 620.03 222.64 621.77 222 622.57C220.57 624.35 216.53 624.54 214.23 622.93C213.38 622.33 211.53 621.59 210.13 621.27C203.44 619.77 199.5 615.19 203.52 613.59C207.33 612.06 209.87 608.72 215.44 597.89C218.15 592.64 220.93 587.59 221.63 586.67C224.97 582.27 233.21 566.91 238.81 554.6C239.72 552.61 242.2 547.92 244.32 544.18C248.33 537.1 248.68 535.83 247.4 533.01C246.14 530.25 240.92 530.53 238.68 533.48C236.61 536.21 228.53 551.45 227.28 555C226.76 556.46 224.65 560.47 222.58 563.91C220.51 567.35 218.81 570.35 218.79 570.58C218.78 570.81 217.29 573.1 215.49 575.66C213.69 578.23 210.66 582.88 208.76 586C201.23 598.37 199.13 601.47 196.48 604.12C195.24 605.36 193.92 607.18 193.55 608.17C192.09 612 185.71 610.26 177.08 603.68C175.88 602.76 174.63 602.01 174.3 602.01C173.98 602.01 173.06 601.26 172.26 600.34C171.47 599.42 170.59 598.67 170.31 598.67C168.13 598.65 168.45 595.36 170.72 594.45C174.25 593.03 186.99 579.17 191.79 571.51C199.28 559.59 204.7 551.05 207.78 546.32C216.52 532.88 217.87 530.75 219.84 527.27C222.04 523.4 222.04 521.06 219.85 520.22C219.29 520.01 218.17 518.66 217.37 517.23C214.61 512.33 209.32 514.76 206.78 522.11C205.38 526.16 203.16 530.32 196.48 541.39C193.42 546.48 192.56 547.74 189.73 551.42C188.1 553.55 185.21 557.62 183.32 560.47C181.42 563.33 179.7 565.81 179.48 565.99C178.26 567.03 172.74 574.73 171.6 577C170.85 578.46 169.01 581.3 167.51 583.31C166 585.31 164.44 588.04 164.04 589.37C163.43 591.43 163.08 591.75 161.72 591.49C160.2 591.19 152.38 584.77 151.26 582.9C150.97 582.4 150.37 582 149.93 581.99C149.01 581.99 147.46 578.98 147.46 577.2C147.46 576.54 147.7 576 147.99 576C148.29 576 150.93 573.67 153.87 570.83C159.26 565.62 159.71 564.94 167.81 549.65C169.56 546.35 172.98 540.84 175.4 537.4C177.82 533.97 180.23 530.51 180.75 529.73C192.04 512.77 193.19 509.33 189.22 504.39C187.91 502.77 178.81 505.86 178.81 507.93C178.81 509 173.95 517.05 170.75 521.31C170.06 522.22 168.38 524.92 167.03 527.31C165.67 529.69 163.78 532.84 162.83 534.31C161.87 535.78 160.23 538.63 159.19 540.65C158.15 542.67 154.71 548.44 151.55 553.47C148.38 558.51 145.02 563.99 144.08 565.66C141.56 570.1 141.19 570.35 139.2 568.9C138.26 568.22 137.49 567.36 137.48 566.99C137.46 566.63 136.7 565.45 135.79 564.39C134.87 563.32 134.12 562.15 134.12 561.77C134.12 561.4 133.72 560.62 133.24 560.04C132.22 558.83 129.45 551.67 129.45 550.25C129.45 549.73 130.42 548.71 131.59 548C135.83 545.42 145.79 531.72 151.2 521.03C153.96 515.56 156.96 510.13 157.85 508.96C159.87 506.31 159.88 504.98 157.92 502.36C155.2 498.74 155.25 498.19 158.35 497.4C161.81 496.53 165.38 496.09 167.14 496.33M175.8 500.39C174.29 500.97 175.82 501.94 178.27 501.95C180.71 501.97 181.27 500.79 178.99 500.44C177.97 500.29 177.09 500.12 177.03 500.06C176.97 500.01 176.42 500.16 175.8 500.39M151.07 500.54C151.33 500.95 150.49 502.19 149.19 503.33C147.9 504.46 146.32 506.64 145.67 508.18C144.5 510.93 137.81 524.24 136.03 527.33C135.53 528.21 134.52 529.43 133.79 530.04C133.05 530.65 131.88 532.83 131.18 534.89C128.98 541.35 126.83 542.17 125.53 537.03C122.5 524.99 128.83 510.63 140.75 502.52C143.94 500.35 150.21 499.14 151.07 500.54M514.03 518.81C513.79 520 513.01 521.79 512.28 522.78C511.55 523.77 510.95 524.86 510.95 525.18C510.95 528.48 501.52 533.89 497.72 532.77C496.33 532.36 489.53 532.04 481.94 532.04C471.61 532.04 467.94 531.81 465.68 531.01C464.04 530.43 460.58 529.98 457.77 529.98C455.03 529.98 450.71 529.48 448.17 528.86C445.07 528.11 443.33 527.97 442.88 528.42C440.86 530.44 447.52 537.31 452.77 538.61C454.5 539.05 457.28 540.21 458.93 541.19C461.91 542.97 462 542.98 473.94 542.86C481.33 542.78 485.39 542.95 484.5 543.31C483.7 543.63 482.8 544.34 482.5 544.88C481.54 546.57 470.88 547.99 464.27 547.3C456.65 546.51 453.59 545.96 453.59 545.39C453.59 545.13 452.47 544.52 451.09 544.03C448.77 543.2 440.26 535.18 440.26 533.81C440.26 533.5 439.17 532.13 437.85 530.78C435.65 528.52 432.92 524.11 432.92 522.83C432.92 521.54 471.1 522.24 474.76 523.6C478.14 524.85 478.34 524.86 480.75 523.71C482.15 523.04 485.46 522.37 488.26 522.2C491.02 522.02 494.33 521.48 495.61 521C498.13 520.04 512.19 516.64 513.6 516.64C514.21 516.64 514.33 517.26 514.03 518.81M280.18 549.99C280.18 550.35 280.76 550.65 281.47 550.65C283.07 550.65 291.27 558.89 291.81 561.06C292.04 561.94 291.81 563.49 291.31 564.5C290.8 565.5 289.26 569.63 287.88 573.66C286.49 577.7 284.8 582.27 284.11 583.83C283.42 585.38 282.85 586.84 282.85 587.06C282.85 587.28 282.29 588.18 281.59 589.06C280.9 589.94 280.13 591.77 279.87 593.13C279.09 597.28 271.79 609.97 267.59 614.45C264.76 617.47 257.51 628.94 257.51 630.38C257.51 633.22 245.1 633.38 240.55 630.61C239.42 629.92 237.84 629.36 237.04 629.36C234.01 629.35 234.48 626.87 238.14 623.58C242.39 619.76 246.21 614.77 250.82 607.01C252.78 603.71 254.6 600.86 254.87 600.67C255.13 600.49 255.95 599.29 256.69 598.01C257.42 596.72 259.97 592.34 262.36 588.27C269.62 575.86 272.2 570.62 274.51 563.66C275.72 559.99 277.03 556.09 277.43 554.99C277.82 553.89 278.31 552.16 278.51 551.15C278.85 549.44 280.18 548.51 280.18 549.99M302.19 570.92C302.19 571.48 302.77 572.48 303.47 573.14C307.32 576.73 310.17 584.31 310.9 592.85C312.1 606.87 310.5 611.67 301.52 621.02C298.3 624.36 291.56 629.03 288.52 630C287.05 630.48 285.54 631.11 285.15 631.42C282.82 633.25 274.42 634.19 270.5 633.05C270.24 632.97 268.94 632.59 266.6 631.91C267.98 630.85 268.74 630.27 268.89 630.15C274.73 625.65 280.86 617.54 285.37 608.34C286.63 605.78 287.88 603.53 288.15 603.34C289.05 602.72 293.45 593.49 294.55 589.91C295.15 587.94 296.43 584.71 297.39 582.72C298.63 580.15 299.17 577.85 299.28 574.72C299.42 570.86 299.61 570.3 300.82 570.11C301.7 569.98 302.19 570.27 302.19 570.92" id="c171jcaPt8"></path><path d="M302.12 80.21C304.29 80.73 306.84 81.71 307.79 82.38C308.75 83.06 310.73 84.22 312.21 84.96C323.16 90.5 327.59 103.34 323.36 117.28C321.45 123.57 311.47 133.45 305.35 135.1C303.86 135.5 301.79 136.27 300.75 136.81C299.46 137.48 296.8 137.8 292.4 137.8C271.99 137.81 259.82 120.72 265.51 100.02C269.73 84.64 285.39 76.17 302.12 80.21M162.8 100.46C165.37 101.58 167.92 102.66 168.47 102.86C169.02 103.07 170.3 104.34 171.32 105.68C172.34 107.02 174.36 109.69 175.82 111.61C180.56 117.83 178.84 130.61 171.84 141.27C168.81 145.88 168.06 146.39 160.47 149.05C158.45 149.76 155.6 150.81 154.13 151.38C143.98 155.34 128.76 148.43 125.41 138.36C124.78 136.45 123.66 133.88 122.93 132.64C120.93 129.25 121.67 124.37 125.32 116.85C132.73 101.63 149.06 94.49 162.8 100.46M444.02 262.03C444.08 262.48 444.15 263.46 444.19 264.19C444.23 265.05 445.7 266.48 448.26 268.16C452.57 271.01 459.22 277.5 463.31 282.87C464.71 284.7 467.48 288.19 469.46 290.63C476.26 298.96 484.27 316.84 485.03 325.4C485.52 330.93 486.05 331.89 488.62 331.89C492.31 331.89 491.25 333.57 485.74 336.42C479.81 339.5 477.78 339.19 481.11 335.71C482.86 333.89 482.87 333.81 481.78 331.71C481.16 330.52 480.22 327.91 479.68 325.89C475.46 310.14 473.95 306.65 468.27 299.54C466.8 297.71 465.38 295.91 465.11 295.54C464.83 295.17 463 292.7 461.03 290.05C456.66 284.15 441.65 268.53 440.36 268.53C437.67 268.53 437.71 266.53 440.44 263.85C443.35 260.99 443.87 260.73 444.02 262.03M178.69 347.67C179.53 348.5 179.15 353.93 178.08 356.42C169.93 375.51 167.09 401.87 170.95 422.6C174.28 440.53 169.58 445.3 165.03 428.6C162.9 420.8 162.69 389.84 164.7 380.58C166.38 372.83 168.82 364.77 170.45 361.59C171.19 360.14 171.8 358.56 171.8 358.07C171.8 355.34 177.6 346.58 178.69 347.67M410.78 387.75C410.2 389.12 409.02 392.77 408.17 395.84C406.46 401.97 404.75 404.73 403.75 402.95C402.92 401.47 402.46 401.62 398.71 404.6C395.41 407.23 382.84 413.83 377.56 415.7C376.09 416.22 373.18 417.84 371.09 419.31C368.48 421.13 365.88 422.28 362.76 422.97C356.25 424.4 350.16 426.41 345.53 428.63C343.31 429.7 339.25 431.13 336.49 431.82C333.74 432.51 330.84 433.42 330.06 433.83C329.28 434.25 325.54 434.91 321.75 435.3C317.96 435.68 310.94 436.43 306.13 436.97C301.32 437.5 294.72 437.93 291.46 437.93C286.04 437.92 280.4 438.91 271.81 441.38C270.31 441.82 263.67 441.93 253.8 441.68C245.2 441.47 233.21 441.32 227.16 441.34C219.58 441.36 214.6 441.05 211.15 440.32C204.16 438.85 202.83 438.95 201.31 441.03C199.04 444.15 198.64 442.62 200.01 436.1C201.35 429.8 202.35 428.53 203.82 431.27C204.7 432.91 206.82 432.97 212.95 431.54C216.67 430.67 219.67 430.55 229.5 430.92C237.36 431.22 242.54 431.13 244.5 430.65C246.15 430.26 254.71 429.48 263.51 428.93C272.31 428.39 282.97 427.61 287.19 427.21C291.41 426.82 298.46 426.26 302.86 425.98C307.89 425.66 311.8 425.05 313.39 424.35C314.78 423.73 318.32 422.77 321.27 422.21C324.21 421.65 329.08 420.33 332.08 419.27C335.09 418.21 339.04 417.02 340.88 416.63C342.71 416.24 345.56 415.35 347.21 414.64C348.86 413.94 353.37 412.26 357.22 410.9C371.27 405.94 372.54 405.28 387.57 395.24C396.44 389.32 397.78 388.68 402.35 388.19C404.49 387.97 407.05 387.21 408.05 386.51C411.11 384.36 412.04 384.78 410.78 387.75M174.97 444.38C176.49 444.99 175.84 446.52 173.97 446.73C169.33 447.26 165.68 445.56 168.86 444.34C170.09 443.87 173.76 443.89 174.97 444.38" id="c396q4xnW"></path></defs><g><g><g><use xlink:href="#c3EZtnit2J" opacity="1" fill="#ebeaea" fill-opacity="1"></use><g><use xlink:href="#c3EZtnit2J" opacity="1" fill-opacity="0" stroke="#000000" stroke-width="1" stroke-opacity="0"></use></g></g><g><use xlink:href="#c171jcaPt8" opacity="1" fill="#815f8f" fill-opacity="1"></use><g><use xlink:href="#c171jcaPt8" opacity="1" fill-opacity="0" stroke="#725972" stroke-width="3" stroke-opacity="1"></use></g></g><g><use xlink:href="#c396q4xnW" opacity="1" fill="#f25828" fill-opacity="1"></use><g><use xlink:href="#c396q4xnW" opacity="1" fill-opacity="0" stroke="#000000" stroke-width="1" stroke-opacity="0"></use></g></g></g></g></svg>